<svg id="Layer_1" data-name="Layer 1" xmlns="http://www.w3.org/2000/svg" viewBox="0 0 269.7 214.58"><defs><style>.cls-1{fill:#010101;}.cls-2{fill:#fff;}.cls-3{fill:#ffd431;}</style></defs><title>Adminsration1</title><path class="cls-1" d="M339.64,326.16a1.46,1.46,0,0,1-1.2-.6l-9.25-12.33-9.25,12.33a1.49,1.49,0,1,1-2.38-1.79L328,309.85a1.55,1.55,0,0,1,2.39,0l10.44,13.92a1.5,1.5,0,0,1-1.19,2.39Z" transform="translate(-190.78 -309.29)"/><path class="cls-2" d="M414.71,385.79q4.17,7.35,8.38,14.69,10.65,18.51,21.43,36.95l2.55,4.37c-19.38,9.24-53.54,30.51-61.31,35.35C365.5,489.77,334.28,514,323.11,514c-6.54,0-10.9-3.63-5.6-8.29-6.36,3.34-14,.84-16.55-2.23s-2.18-6.14-.51-10c-4.76.09-10.23.05-13-3.53s-2-9.73.53-13.83c-5,2.4-16.19,5.71-20.83-2.48-20.44-36.09-5.51-62-.83-61.65,9.17.75,16.42,9,25.75,5.83,51.41-17.22,55-12.45,62.94-10C379.3,417.22,397.92,397.05,414.71,385.79Z" transform="translate(-190.78 -309.29)"/><path class="cls-1" d="M323.09,515.5c-4.66,0-8.17-1.64-9.16-4.28a4.36,4.36,0,0,1-.12-2.68c-5.84,1.06-11.67-1.25-14-4.11-2.64-3.23-2.48-6.46-1.54-9.38-4.11,0-9.19-.5-12-4.13-2.49-3.21-2.49-7.94-1.19-11.95-7.06,2.41-15.3,2.4-19.23-4.54-16-28.23-10.73-50.64-5.11-59.44,1.11-1.74,3.33-4.62,5.7-4.44,4,.32,7.51,1.91,10.93,3.45,4.74,2.13,9.22,4.13,14.22,2.46,47.26-15.83,54.67-13.22,61.83-10.7.67.23,1.33.46,2,.68l.09,0c19.11,7.35,34.93-4.56,48.9-15.06,3.27-2.46,6.36-4.79,9.45-6.86a1.5,1.5,0,0,1,2.13.5l1,1.73q3.67,6.48,7.39,13c6.7,11.65,13.71,23.74,21.43,36.95l2.55,4.37a1.49,1.49,0,0,1-.64,2.1c-12.66,6-33.81,18.22-61.17,35.26-5.69,3.55-12.15,7.95-19,12.61-17.68,12-36,24.47-44.43,24.48Zm-5.58-11.28a1.49,1.49,0,0,1,1.23.65,1.5,1.5,0,0,1-.24,2c-.85.75-2.22,2.17-1.78,3.33s2.77,2.35,6.37,2.35h0c7.56,0,26.26-12.74,42.76-24,6.87-4.67,13.37-9.1,19.11-12.67,26.42-16.46,47.11-28.43,60-34.72l-1.74-3c-7.72-13.22-14.73-25.31-21.44-37q-3.72-6.47-7.4-13l-.18-.32c-2.59,1.8-5.23,3.78-8,5.86-14.57,11-31.09,23.39-51.71,15.48-.72-.22-1.4-.46-2.09-.7-6.69-2.35-13.6-4.79-59.89,10.72-6.11,2-11.33-.3-16.39-2.57-3.2-1.43-6.5-2.91-9.95-3.2-.45,0-2.08,1.27-3.86,4.65-2,3.81-11.13,24.34,6.11,54.79,4.73,8.36,17.45,2.55,18.89,1.87a1.49,1.49,0,0,1,1.91,2.12c-2.17,3.56-3,9.07-.63,12.13,2.26,2.9,6.87,3.06,11.81,3a1.57,1.57,0,0,1,1.27.66,1.51,1.51,0,0,1,.13,1.43c-1.67,3.83-1.59,6.11.3,8.41,2.18,2.67,9.16,4.77,14.7,1.86A1.45,1.45,0,0,1,317.51,504.22Z" transform="translate(-190.78 -309.29)"/><path class="cls-1" d="M285.73,478.64a1.49,1.49,0,0,1-.7-2.81l12.66-6.66a1.49,1.49,0,1,1,1.39,2.64l-12.66,6.66A1.56,1.56,0,0,1,285.73,478.64Z" transform="translate(-190.78 -309.29)"/><path class="cls-1" d="M298.71,495a1.49,1.49,0,0,1-.19-3,22.75,22.75,0,0,0,8.38-3.59,1.49,1.49,0,1,1,1.76,2.41A25.6,25.6,0,0,1,298.9,495Z" transform="translate(-190.78 -309.29)"/><path class="cls-1" d="M424.41,462.58c13.39-7.58,21.12-11.07,32.31-18.16a4.47,4.47,0,0,0,2.17-2.25c.34-1.16-.28-2.36-.88-3.41l-36.54-63.48c-.62-1.08-1.39-2.27-2.61-2.52a4.48,4.48,0,0,0-2.94.81c-11.14,6.12-22.27,12.24-32.8,18.59-1.84,2-.54,5.23.82,7.6q17.64,30.8,35.29,61.57A4.19,4.19,0,0,0,424.41,462.58Z" transform="translate(-190.78 -309.29)"/><path class="cls-1" d="M422.66,464.52a5.7,5.7,0,0,1-4.73-2.45L382.64,400.5c-2.34-4.08-2.55-7.22-.63-9.34a1.54,1.54,0,0,1,.34-.28c10.57-6.37,21.9-12.6,32.85-18.62a5.81,5.81,0,0,1,3.95-1c2,.4,3,2.25,3.61,3.24L459.3,438c.59,1,1.57,2.72,1,4.57a5.91,5.91,0,0,1-2.81,3.09c-7,4.43-12.62,7.45-19.13,10.94-4,2.16-8.19,4.39-13.25,7.26A5,5,0,0,1,422.66,464.52ZM384.1,393.31c-1,1.35,0,3.83,1.13,5.71l35.29,61.57a2.75,2.75,0,0,0,3.15.69h0c5.09-2.88,9.27-5.12,13.31-7.29,6.46-3.46,12-6.46,18.94-10.83.7-.44,1.39-.91,1.54-1.42s-.29-1.45-.74-2.23L420.18,376c-.5-.87-1.05-1.69-1.62-1.81a3.49,3.49,0,0,0-1.92.66C405.78,380.84,394.57,387,384.1,393.31Z" transform="translate(-190.78 -309.29)"/><path class="cls-2" d="M236.56,385.79c-2.79,4.9-5.57,9.8-8.38,14.69Q217.53,419,206.75,437.43q-1.27,2.19-2.56,4.37c19.38,9.24,52,27.4,54.48,36.22,4.65,16.79,58.86,40,69.48,43.44,12.59,4.09,21.55-6.41,5.6-15.74,6.37,3.34,21.37,14,28.82,4,7-9.45-9.38-14.89-12.81-16.85,3.74,1.79,23.17,13.36,30.22,2.12,6.9-11-12.67-16.41-16.6-19,5,2.4,27.57,18.45,33.79,5.14,6.68-14.29-13.79-20-53.41-41.63-1.36-.75-6.77-4-10.47-3.26-9.74,2.46-10,4.51-31.25,16.05-27.63,15-17.78-9.39-3.57-22.54,9.92-9.17,17.35-16.86,34.07-23.29-10.33-4.93-28.35-1.06-36.27,1.38C272,417.22,253.35,397.05,236.56,385.79Z" transform="translate(-190.78 -309.29)"/><path class="cls-1" d="M333.64,523.87a19.3,19.3,0,0,1-5.95-1c-6.51-2.11-65.32-25.91-70.46-44.46-1.93-7-28.81-23.42-53.68-35.27a1.51,1.51,0,0,1-.65-2.1l2.56-4.37c7.72-13.21,14.73-25.3,21.43-36.95,2.48-4.31,4.93-8.63,7.39-13l1-1.73a1.46,1.46,0,0,1,1-.71,1.49,1.49,0,0,1,1.18.21c3.09,2.07,6.18,4.4,9.45,6.86,14,10.5,29.79,22.42,48.89,15.06l.1,0c2.49-.77,24.73-7.34,37.35-1.3a1.48,1.48,0,0,1-.11,2.73c-15.16,5.84-22.65,12.82-31.33,20.9l-2.25,2.1c-9.59,8.86-15.29,20.69-13.06,23.8,1.1,1.54,5.6,1.38,14.9-3.67,7.71-4.18,12.66-7.13,16.27-9.27,6.49-3.86,8.92-5.3,15.33-6.91,4-.84,9.21,2.08,11.17,3.18l.37.21c8.44,4.61,16,8.48,22.64,11.89,24.82,12.74,37.27,19.14,31.41,31.68a9.87,9.87,0,0,1-6.12,5.54c-3,.95-6.67.55-10.33-.53a8.67,8.67,0,0,1,.51,1.31,9.07,9.07,0,0,1-1.34,7.66c-3.8,6.07-10.63,6.28-17.07,4.7a8.73,8.73,0,0,1,1.39,2.9,8.39,8.39,0,0,1-1.79,7.22c-5.3,7.16-13.84,5.05-20.88,1.77a7.6,7.6,0,0,1,.33,6.48C341.76,522.07,338.1,523.87,333.64,523.87Zm-127.35-82.7c8.45,4.13,50.73,25.3,53.82,36.45,4.23,15.3,55.71,38.27,68.5,42.42,5.89,1.92,10.67.27,11.88-2.43,1.07-2.38-.34-6.42-7.49-10.61a1.49,1.49,0,0,1,1.45-2.6c.82.43,1.79,1,2.87,1.6,6.86,3.94,18.34,10.53,24.05,2.81,1.25-1.69,1.68-3.23,1.3-4.71-.68-2.66-3.81-4.91-6.9-6.62-2.18-1-4-1.93-5.3-2.59l-.23-.12c-.49-.23-.89-.43-1.22-.62a1.49,1.49,0,0,1,1.38-2.64l1.16.58,1,.48c1.34.62,2.95,1.37,4.59,2.27,7,3.09,17.23,6.22,21.55-.66a6.2,6.2,0,0,0,1-5.21,9.33,9.33,0,0,0-3.28-4.27,107.21,107.21,0,0,1-10.59-5.6l-1.69-1a13.8,13.8,0,0,1-1.6-.87,1.49,1.49,0,0,1,1.45-2.6c.42.2.93.48,1.53.82l2.14,1A49.86,49.86,0,0,1,378,482.1c4.78,2.08,9.85,3.52,13.51,2.37a6.92,6.92,0,0,0,4.32-4c4.42-9.46-4.28-14.52-30.07-27.76-6.67-3.43-14.23-7.31-22.71-11.93l-.4-.23c-1.53-.86-6.19-3.48-9-2.87-5.93,1.49-8.09,2.77-14.47,6.56-3.64,2.16-8.62,5.12-16.38,9.33-10.05,5.46-16.18,6.37-18.75,2.79-4.08-5.7,5.09-20,13.46-27.73l2.24-2.09c8.19-7.63,15.36-14.3,28.66-20-9.7-2.48-23.95.35-31.6,2.7a36.08,36.08,0,0,1-13.07,2.5c-14.75,0-27.29-9.43-38.65-18-2.76-2.08-5.39-4.06-8-5.86l-.18.32q-3.69,6.5-7.4,13c-6.7,11.66-13.71,23.75-21.43,37Z" transform="translate(-190.78 -309.29)"/><path class="cls-1" d="M365.54,478.64a1.56,1.56,0,0,1-.69-.17l-12.66-6.66a1.5,1.5,0,0,1-.63-2,1.48,1.48,0,0,1,2-.62l12.66,6.66a1.49,1.49,0,0,1-.69,2.81Z" transform="translate(-190.78 -309.29)"/><path class="cls-1" d="M352,495.6a1.51,1.51,0,0,1-.82-.24,29.93,29.93,0,0,0-4.28-2.21,23.29,23.29,0,0,1-4.27-2.26,1.49,1.49,0,0,1,1.76-2.41,21.87,21.87,0,0,0,3.73,1.95,32.08,32.08,0,0,1,4.7,2.44,1.49,1.49,0,0,1-.82,2.73Z" transform="translate(-190.78 -309.29)"/><path class="cls-3" d="M226.86,462.58c-13.39-7.58-21.13-11.07-32.32-18.16a4.51,4.51,0,0,1-2.17-2.25c-.34-1.16.29-2.36.89-3.41l36.54-63.48c.62-1.08,1.38-2.27,2.61-2.52a4.48,4.48,0,0,1,2.94.81c11.13,6.12,22.27,12.24,32.8,18.59,1.84,2,.54,5.23-.82,7.6q-17.64,30.8-35.29,61.57A4.19,4.19,0,0,1,226.86,462.58Z" transform="translate(-190.78 -309.29)"/><path class="cls-1" d="M228.61,464.52a5.08,5.08,0,0,1-2.49-.64h0c-5.05-2.87-9.22-5.1-13.24-7.26-6.51-3.49-12.14-6.51-19.13-10.94a5.91,5.91,0,0,1-2.81-3.09c-.54-1.85.44-3.55,1-4.57l36.54-63.48c.57-1,1.64-2.84,3.61-3.24a5.8,5.8,0,0,1,3.95,1c11,6,22.29,12.25,32.86,18.62a1.48,1.48,0,0,1,.33.28c1.92,2.12,1.71,5.26-.63,9.34l-35.29,61.57A5.68,5.68,0,0,1,228.61,464.52Zm4.27-90.31h-.17c-.58.12-1.12.94-1.62,1.81l-36.54,63.48c-.45.78-.92,1.66-.75,2.23s.84,1,1.54,1.42c6.91,4.37,12.49,7.37,18.95,10.83,4,2.17,8.22,4.41,13.3,7.29h0a2.78,2.78,0,0,0,3.16-.69L266,399c1.08-1.88,2.12-4.36,1.13-5.71-10.45-6.3-21.68-12.46-32.53-18.43A4.29,4.29,0,0,0,232.88,374.21Z" transform="translate(-190.78 -309.29)"/><path class="cls-2" d="M213.89,437.24a6.52,6.52,0,1,1,6.51,6.51A6.51,6.51,0,0,1,213.89,437.24Z" transform="translate(-190.78 -309.29)"/><path class="cls-1" d="M220.4,445.24a8,8,0,1,1,8-8A8,8,0,0,1,220.4,445.24Zm0-13a5,5,0,1,0,5,5A5,5,0,0,0,220.4,432.21Z" transform="translate(-190.78 -309.29)"/><path class="cls-2" d="M423.58,437.24a6.52,6.52,0,1,1,6.52,6.51A6.52,6.52,0,0,1,423.58,437.24Z" transform="translate(-190.78 -309.29)"/><path class="cls-1" d="M430.1,445.24a8,8,0,1,1,8-8A8,8,0,0,1,430.1,445.24Zm0-13a5,5,0,1,0,5,5A5,5,0,0,0,430.1,432.21Z" transform="translate(-190.78 -309.29)"/><path class="cls-2" d="M279.49,481.4c-2.95.42-12.35,4.86-13,10.16-.56,4.76,4.08,8.19,8.09,10.45a5.45,5.45,0,0,0,3.53,1c1.35-.27,2.3-1.51,3.13-2.67,2.23-3.15,4.55-6.52,4.91-10.43S284.06,480.76,279.49,481.4Z" transform="translate(-190.78 -309.29)"/><path class="cls-1" d="M277.6,504.57a7.74,7.74,0,0,1-3.72-1.26c-2.37-1.34-9.61-5.4-8.84-11.93.74-6.31,10.87-11,14.24-11.45a6.39,6.39,0,0,1,5.46,1.78,10.73,10.73,0,0,1,2.93,8.36c-.41,4.42-3.06,8.15-5.19,11.15-.81,1.15-2,2.88-4.06,3.27A3.8,3.8,0,0,1,277.6,504.57Zm2.63-21.73a3.23,3.23,0,0,0-.53,0h0c-2.62.37-11.19,4.56-11.7,8.85-.36,3.06,2,6,7.35,9a4.23,4.23,0,0,0,2.5.85c.78-.15,1.51-1.1,2.2-2.07,2-2.84,4.31-6.07,4.65-9.7a7.67,7.67,0,0,0-2-5.92A3.47,3.47,0,0,0,280.23,482.84Zm-.74-1.44h0Z" transform="translate(-190.78 -309.29)"/><path class="cls-2" d="M292.78,489.85c-3.41,1.07-11.46,7.1-11.3,12.17.16,4.79,5.25,7.42,9.55,9a5.32,5.32,0,0,0,3.63.42c1.3-.48,2-1.87,2.69-3.15,1.75-3.48,3.54-7.19,3.31-11.11S297.2,488.46,292.78,489.85Z" transform="translate(-190.78 -309.29)"/><path class="cls-1" d="M293.6,513.1a9.15,9.15,0,0,1-3.08-.69c-2.55-.93-10.32-3.76-10.53-10.35-.19-6,8.48-12.42,12.35-13.63a6.34,6.34,0,0,1,5.68.87,10.57,10.57,0,0,1,4.13,7.78c.26,4.44-1.81,8.56-3.46,11.87-.63,1.26-1.59,3.16-3.51,3.88A4.42,4.42,0,0,1,293.6,513.1Zm.72-22a3.8,3.8,0,0,0-1.09.17h0c-3,.93-10.39,6.58-10.26,10.7.1,3.07,2.91,5.57,8.57,7.64a4.27,4.27,0,0,0,2.6.42c.76-.28,1.35-1.35,1.88-2.42,1.58-3.15,3.36-6.71,3.15-10.36a7.49,7.49,0,0,0-2.85-5.49A3.44,3.44,0,0,0,294.32,491.1Zm-1.54-1.25h0Z" transform="translate(-190.78 -309.29)"/><path class="cls-2" d="M306.66,500.81c-2.27.69-9.64,6.13-9.56,9.55.08,3.71,4.31,5.69,7.9,6.86a4.68,4.68,0,0,0,3,.28,4.74,4.74,0,0,0,2.28-2.46c1.49-2.72,3-5.6,2.87-8.64S310.37,499.69,306.66,500.81Z" transform="translate(-190.78 -309.29)"/><path class="cls-1" d="M307.09,519.15a8.21,8.21,0,0,1-2.56-.52c-2.17-.71-8.8-2.87-8.92-8.24-.1-4.44,8.09-10.24,10.62-11l.43,1.42-.43-1.42a5.85,5.85,0,0,1,5.16.82,8.21,8.21,0,0,1,3.28,6.11c.17,3.55-1.62,6.81-3.05,9.43a6.22,6.22,0,0,1-3.09,3.16A4.35,4.35,0,0,1,307.09,519.15Zm0-16.91c-2.25.68-8.55,5.77-8.5,8.08s2.3,4,6.87,5.48a3.72,3.72,0,0,0,2.07.3c.57-.2,1-1,1.47-1.78,1.32-2.41,2.82-5.14,2.69-7.85a5.28,5.28,0,0,0-2-3.82,2.86,2.86,0,0,0-2.58-.41Z" transform="translate(-190.78 -309.29)"/><path class="cls-2" d="M266.06,473c-4.29.56-10.42,4.44-10.86,7.85-.47,3.68,3.42,6.33,6.78,8.08a4.73,4.73,0,0,0,2.95.78,4.62,4.62,0,0,0,2.62-2.06c1.88-2.43,3.82-5,4.12-8.06S269.89,472.5,266.06,473Z" transform="translate(-190.78 -309.29)"/><path class="cls-1" d="M264.48,491.24a7,7,0,0,1-3.19-1c-2-1.05-8.24-4.28-7.57-9.59.57-4.46,7.66-8.55,12.15-9.13h0a5.87,5.87,0,0,1,4.95,1.65,8.3,8.3,0,0,1,2.34,6.56c-.36,3.54-2.61,6.47-4.43,8.82a6,6,0,0,1-3.53,2.62A3.51,3.51,0,0,1,264.48,491.24Zm1.78-16.77c-4,.52-9.27,4.14-9.58,6.56-.28,2.18,1.68,4.33,6,6.57a3.78,3.78,0,0,0,2,.64c.58-.11,1.16-.8,1.7-1.51,1.66-2.16,3.55-4.6,3.82-7.3a5.39,5.39,0,0,0-1.45-4.13,2.9,2.9,0,0,0-2.48-.83Z" transform="translate(-190.78 -309.29)"/><path class="cls-1" d="M329.19,370.42a1.49,1.49,0,0,1-1.49-1.49V312.05a1.49,1.49,0,1,1,3,0v56.88A1.49,1.49,0,0,1,329.19,370.42Z" transform="translate(-190.78 -309.29)"/><path class="cls-1" d="M353.78,369.79a1.49,1.49,0,0,1-1.49-1.49V342.44a1.49,1.49,0,1,1,3,0V368.3A1.49,1.49,0,0,1,353.78,369.79Z" transform="translate(-190.78 -309.29)"/><path class="cls-1" d="M304.6,369.79a1.49,1.49,0,0,1-1.49-1.49V342.44a1.5,1.5,0,0,1,3,0V368.3A1.49,1.49,0,0,1,304.6,369.79Z" transform="translate(-190.78 -309.29)"/></svg>