<svg id="Layer_1" data-name="Layer 1" xmlns="http://www.w3.org/2000/svg" viewBox="0 0 173.09 158.79"><defs><style>.cls-1{fill:#45484a;}</style></defs><title>archive</title><path class="cls-1" d="M344.62,537.05H331.68V384.23a1.95,1.95,0,0,0-2-2H289.11a2,2,0,0,0-2,2V537.05h-5.84V407.53a2,2,0,0,0-.59-1.41,2,2,0,0,0-1.41-.58H238.71a2,2,0,0,0-2,2V537.05h-5.32V384.61a2,2,0,0,0-2-2H188.84a2,2,0,0,0-1.4.59,1.93,1.93,0,0,0-.59,1.4V537.05H175.51a2,2,0,1,0,0,4H344.62a2,2,0,1,0,0-4ZM227.44,436.72H191.65v-25h35.79Zm0,4v55.2H190.83v-55.2Zm-36.61,59.18h36.61v12.2H190.83Zm0-113.27h36.61v21.13H190.83Zm0,150.45v-21h36.61v21Zm86.48-68.71H240.7V456.61h36.61Zm-36.61,4h36.61v47.23H240.7Zm0-62.8h36.61v43.13H240.7Zm0,127.54V523.52h36.61v13.53Zm50.4-89.85h36.61v72.34H291.1Zm0-22.94h36.61v19H291.1Zm0-38.05h36.61v34.07H291.1Zm0,150.84V523.52h36.61v13.53Z" transform="translate(-173.52 -382.25)"/></svg>