<svg id="Layer_1" data-name="Layer 1" xmlns="http://www.w3.org/2000/svg" viewBox="0 0 216.2 220.52"><defs><style>.cls-1{fill:#481f2e;}.cls-2{fill:#fff;}.cls-3{fill:#f16565;}</style></defs><title>Assigment1</title><path class="cls-1" d="M398.16,318.26a26,26,0,0,0-36.74,0l-107.1,107.1a4.41,4.41,0,0,0-1.21,2.47L248,463.53a4.46,4.46,0,0,0,1.21,3.67,4.35,4.35,0,0,0,3.08,1.26,2.83,2.83,0,0,0,.6,0l35.7-5.11a4.41,4.41,0,0,0,2.47-1.21l67.25-67.25,8.57-8.57,13.06-13.07,8.66-8.65,9.56-9.56a26,26,0,0,0,0-36.74ZM392,348.85l-10.6,10.65-.18.17,0,0-.17.18L286,455,257.39,459l4.07-28.56,90.92-90.88a.1.1,0,0,1,.09-.09l15.1-15.1a17.71,17.71,0,0,1,24.45,0,17.3,17.3,0,0,1,0,24.45Z" transform="translate(-189.54 -310.68)"/><path class="cls-2" d="M397.08,336.65a17,17,0,0,1-5.06,12.2l-10.6,10.65-.18.17,0,0-.17.18L286,455,257.39,459l4.07-28.56,90.92-90.88a.1.1,0,0,1,.09-.09l15.1-15.1a17.71,17.71,0,0,1,24.45,0A17.08,17.08,0,0,1,397.08,336.65Z" transform="translate(-189.54 -310.68)"/><path class="cls-1" d="M388.6,362.74V518.22a13,13,0,0,1-13,13H202.52a13,13,0,0,1-13-13V345.13a13,13,0,0,1,13-13H349.35a4.34,4.34,0,0,1,4.33,4.32,4.47,4.47,0,0,1-1.21,3,.1.1,0,0,0-.09.09,4.42,4.42,0,0,1-3,1.21H202.52a4.34,4.34,0,0,0-4.33,4.33V518.22a4.34,4.34,0,0,0,4.33,4.33h173.1a4.34,4.34,0,0,0,4.32-4.33V362.74a4.2,4.2,0,0,1,1.09-2.85l.17-.18,0,0,.18-.17a4.2,4.2,0,0,1,2.85-1.09A4.34,4.34,0,0,1,388.6,362.74Z" transform="translate(-189.54 -310.68)"/><path class="cls-3" d="M358.31,394.85V498.53a2.34,2.34,0,0,1-2.38,2.38H222.21a2.34,2.34,0,0,1-2.38-2.38V364.82a2.35,2.35,0,0,1,2.38-2.38h95l-62.92,62.92a4.41,4.41,0,0,0-1.21,2.47L248,463.53a4.46,4.46,0,0,0,1.21,3.67,4.35,4.35,0,0,0,3.08,1.26,2.83,2.83,0,0,0,.6,0l35.7-5.11a4.41,4.41,0,0,0,2.47-1.21Z" transform="translate(-189.54 -310.68)"/><path class="cls-2" d="M379.94,373.21v145a4.34,4.34,0,0,1-4.32,4.33H202.52a4.34,4.34,0,0,1-4.33-4.33V345.13a4.34,4.34,0,0,1,4.33-4.33H338.88l-13,13H222.21a11,11,0,0,0-11,11V498.53a11,11,0,0,0,11,11H355.93a11,11,0,0,0,11-11V387.06a5.16,5.16,0,0,0-.08-.78Z" transform="translate(-189.54 -310.68)"/><path class="cls-1" d="M367,387.06V498.53a11,11,0,0,1-11,11H222.21a11,11,0,0,1-11-11V364.82a11,11,0,0,1,11-11H327a4.33,4.33,0,0,1,0,8.66H222.21a2.35,2.35,0,0,0-2.38,2.38V498.53a2.34,2.34,0,0,0,2.38,2.38H355.93a2.34,2.34,0,0,0,2.38-2.38V387.06a4.34,4.34,0,0,1,4.33-4.33,4.29,4.29,0,0,1,4.24,3.55A5.16,5.16,0,0,1,367,387.06Z" transform="translate(-189.54 -310.68)"/></svg>