<svg id="Layer_1" data-name="Layer 1" xmlns="http://www.w3.org/2000/svg" viewBox="0 0 167.77 173.09"><defs><style>.cls-1{fill:#45484a;}</style></defs><title>attendance1</title><path class="cls-1" d="M246.69,364.54a12,12,0,1,0,8.46-3.51A12,12,0,0,0,246.69,364.54ZM263.14,373a8,8,0,1,1-2.34-5.65A7.93,7.93,0,0,1,263.14,373Z" transform="translate(-185.71 -322.56)"/><path class="cls-1" d="M311,430.93a13.28,13.28,0,1,0,9.42-3.92A13.26,13.26,0,0,0,311,430.93Zm18.76,9.41a9.37,9.37,0,1,1-2.74-6.6A9.24,9.24,0,0,1,329.79,440.34Z" transform="translate(-185.71 -322.56)"/><path class="cls-1" d="M199.68,495.64H351.5a2,2,0,1,0,0-4h-6.64V478.07a19.88,19.88,0,0,0-2-8.61,22.61,22.61,0,0,0-8.9-9.63,26.32,26.32,0,0,0-13.55-3.69,25.81,25.81,0,0,0-17.18,6.34,22.38,22.38,0,0,0-4.85,6.13l-.36-.82a22.91,22.91,0,0,0-8.9-9.63,26.37,26.37,0,0,0-13.56-3.68,27,27,0,0,0-7,.93V450a13.33,13.33,0,1,0,0-22.62V398.19H289a6.16,6.16,0,0,0,4.35-10.51,5.21,5.21,0,0,0-.72-.6l-9.14-35a2,2,0,1,0-3.84,1l8.56,32.77H254a23,23,0,0,0-15.29,5.65,19.63,19.63,0,0,0-4.71,6.21,17.56,17.56,0,0,0-1.74,7.7v19.25a3.78,3.78,0,0,0,0,.76,13.64,13.64,0,0,0-1.57-.1,13.33,13.33,0,1,0,9.42,22.74,5.66,5.66,0,0,0,.42-.43v8.67a27,27,0,0,0-9.84-1.85,25.79,25.79,0,0,0-17.17,6.34,21.61,21.61,0,0,0-5.28,7,19.92,19.92,0,0,0-2,8.62v15.27h-6.66a2,2,0,0,0,0,4ZM300,478.07a16,16,0,0,1,1.57-6.9,18.72,18.72,0,0,1,7.35-7.93,22.29,22.29,0,0,1,11.52-3.12A21.82,21.82,0,0,1,335,465.46a18.06,18.06,0,0,1,4.33,5.71,15.83,15.83,0,0,1,1.57,6.9v13.61h-9.53V484a2,2,0,0,0-4,0v7.69H313.52V484a2,2,0,0,0-4,0v7.69H300ZM275.6,458.46a21.87,21.87,0,0,1,14.53,5.34,18,18,0,0,1,4.34,5.71,16,16,0,0,1,1.56,6.9v15.27H286.5v-9.35a2,2,0,0,0-4,0v9.35H268.67v-9.35a2,2,0,0,0-4,0v9.35h-9.53V476.41a16,16,0,0,1,1.56-6.9,18.74,18.74,0,0,1,7.36-7.93A22.32,22.32,0,0,1,275.6,458.46ZM269,432.07a9.37,9.37,0,1,1-2.73,6.6A9.33,9.33,0,0,1,269,432.07Zm-32.75-26.63a13.8,13.8,0,0,1,1.36-6,16.21,16.21,0,0,1,6.38-6.88,19.45,19.45,0,0,1,10-2.72h35l.25,0,1,3.91a2.2,2.2,0,0,1-1.28.42H266.55a2.05,2.05,0,0,0-1.5.67,2,2,0,0,0-.47,1.57v34.73a13.31,13.31,0,0,0,0,15v10.66a25.13,25.13,0,0,0-6.17,4c-.45.4-.89.84-1.31,1.28V439.86a2,2,0,0,0-2-2,2.12,2.12,0,0,0-1,.25,2,2,0,0,0-1,1.73v27.77a22.86,22.86,0,0,0-8.56-9.31V416.9a2,2,0,0,0-4,0v7.79a2.2,2.2,0,0,1-.64,1.55,2.21,2.21,0,0,1-3.07,0,2.2,2.2,0,0,1-.64-1.55V405.44Zm1.11,39.85a9.32,9.32,0,1,1,2.75-6.62A9.32,9.32,0,0,1,237.35,445.29Zm-27,31.12a15.83,15.83,0,0,1,1.57-6.9,18.72,18.72,0,0,1,7.35-7.93,22.35,22.35,0,0,1,11.51-3.12,21.88,21.88,0,0,1,14.54,5.34,17.84,17.84,0,0,1,4.33,5.71,16,16,0,0,1,1.57,6.9v15.27h-9.54v-9.35a2,2,0,0,0-4,0v9.35H223.83v-9.35a2,2,0,0,0-4,0v9.35h-9.53Z" transform="translate(-185.71 -322.56)"/><path class="cls-1" d="M185.71,348.7a26.15,26.15,0,0,0,26.15,26.13c.81,0,1.62,0,2.42-.12a28.29,28.29,0,0,0,7.26,4.15,54.23,54.23,0,0,0,12.19,3.19,56.11,56.11,0,0,0,5.85.61,2,2,0,0,0,1.93-1.27,2,2,0,0,0-.55-2.24,25.59,25.59,0,0,1-6.77-8.22,12.43,12.43,0,0,1-1.36-5.41,7.65,7.65,0,0,1,.1-1.32.51.51,0,0,0,0-.09,26.13,26.13,0,1,0-47.24-15.41Zm26.15-22.17A22.16,22.16,0,0,1,229.54,362a2,2,0,0,0-.3.56,9.18,9.18,0,0,0-.4,2.92,16.54,16.54,0,0,0,1.77,7.14,25.35,25.35,0,0,0,3.64,5.46c-1.13-.18-2.37-.39-3.67-.68a46.36,46.36,0,0,1-7.67-2.3,23.3,23.3,0,0,1-6.68-4,2,2,0,0,0-1.57-.49,22.16,22.16,0,1,1-2.8-44.14Z" transform="translate(-185.71 -322.56)"/><path class="cls-1" d="M197.67,341.24h7.08a2,2,0,0,0,0-4h-7.08a2,2,0,0,0,0,4Z" transform="translate(-185.71 -322.56)"/><path class="cls-1" d="M195.76,348.09a2,2,0,0,0,2,2H225.4a2,2,0,1,0,0-4H197.74A2,2,0,0,0,195.76,348.09Z" transform="translate(-185.71 -322.56)"/><path class="cls-1" d="M225.4,355H197.74a2,2,0,0,0,0,4H225.4a2,2,0,1,0,0-4Z" transform="translate(-185.71 -322.56)"/></svg>