<svg id="Layer_1" data-name="Layer 1" xmlns="http://www.w3.org/2000/svg" viewBox="0 0 134.48 173.1"><defs><style>.cls-1{fill:#45484a;}</style></defs><title>ATTENDANCE11</title><path class="cls-1" d="M156.27,350.19,145.22,336.9v-22a2,2,0,1,0-4,0v22.75a1.94,1.94,0,0,0,.46,1.26l15.1,18.17a2,2,0,1,0,3.05-2.56Z" transform="translate(-91.36 -246.07)"/><path class="cls-1" d="M207,273.94a16.32,16.32,0,1,0-11.54,4.78A16.24,16.24,0,0,0,207,273.94Zm-23.89-11.55a12.35,12.35,0,1,1,21.08,8.74,12.35,12.35,0,0,1-21.08-8.74Z" transform="translate(-91.36 -246.07)"/><path class="cls-1" d="M145.17,282.92a8,8,0,0,0-5.64,2.33,7.78,7.78,0,0,0-.59.68,51.87,51.87,0,0,0-47.58,51.69v.48a51.86,51.86,0,0,0,51.87,51.39h.48a51.59,51.59,0,0,0,31.72-11.19v29.36a11.78,11.78,0,0,0,3.17,8.09,10.67,10.67,0,0,0,15.64,0c.14-.15.28-.3.41-.47.14.17.28.32.42.47a10.66,10.66,0,0,0,15.63,0,11.74,11.74,0,0,0,3.18-8.09v-63a8,8,0,0,0,12-6.88V310.13a24.89,24.89,0,0,0-2.41-10.67,28.19,28.19,0,0,0-11.06-11.94,32.7,32.7,0,0,0-16.88-4.6H145.17Zm30.26,44.35v45.82a47.71,47.71,0,0,1-31.76,12.43h-.44a47.89,47.89,0,0,1-47.89-47.46v-.44a47.92,47.92,0,0,1,41.9-47.52,7,7,0,0,0,0,.79,8,8,0,0,0,8,8h26.19a45.83,45.83,0,0,1,4.07,3.3Zm38.79-33.48a23.17,23.17,0,0,1,5.6,7.39,20.64,20.64,0,0,1,2,8.95V337.8a4,4,0,0,1-8,0v-24a2,2,0,0,0-.58-1.41,2,2,0,0,0-3.4,1.41v93.9a7.8,7.8,0,0,1-2.09,5.36,6.69,6.69,0,0,1-9.85,0,7.81,7.81,0,0,1-1.14-1.59,12.45,12.45,0,0,0,.6-3.77V357.1a2,2,0,0,0-2-2,2.12,2.12,0,0,0-.57.09,2,2,0,0,0-1.42,1.9v50.56a7.8,7.8,0,0,1-2.09,5.36,6.71,6.71,0,0,1-9.86,0,7.8,7.8,0,0,1-2.09-5.36V297.27a1.81,1.81,0,0,0,0-.4,2,2,0,0,0-2-2H145.17a4,4,0,0,1,0-8h50.31A28.16,28.16,0,0,1,214.22,293.79Z" transform="translate(-91.36 -246.07)"/></svg>