<svg id="Layer_1" data-name="Layer 1" xmlns="http://www.w3.org/2000/svg" viewBox="0 0 173.08 115.61"><defs><style>.cls-1{fill:#45484a;}</style></defs><title>books1</title><path class="cls-1" d="M351.28,456.57a220.9,220.9,0,0,0-30.1-2.25,128.71,128.71,0,0,0-14.32.74,70.27,70.27,0,0,0-10.07,1.84,39.47,39.47,0,0,0-6.6,2.38,20.25,20.25,0,0,0-7.53,5.71,14,14,0,0,0-1,1.47,13.87,13.87,0,0,0-1.63-2.25,21.29,21.29,0,0,0-7-5,51,51,0,0,0-14.44-3.88,120.13,120.13,0,0,0-16.39-1,220.66,220.66,0,0,0-30.09,2.25,2,2,0,0,0-1.69,2v9.85h-5.46a2,2,0,0,0-2,2v89.75a2,2,0,0,0,.58,1.4,2,2,0,0,0,1.42.59h153.5a2,2,0,0,0,2-2V470.36a2,2,0,0,0-.59-1.4,2,2,0,0,0-1.4-.58H353v-9.85A2,2,0,0,0,351.28,456.57Zm-67.62,17.3a10.62,10.62,0,0,1,.78-4.1,10.34,10.34,0,0,1,1.84-2.92,17.45,17.45,0,0,1,5.76-4,46.9,46.9,0,0,1,13.29-3.54,115.92,115.92,0,0,1,15.85-1c7.68,0,15.07.56,20.53,1.11,2.72.28,5,.55,6.53.77a7.38,7.38,0,0,1,.74.1v76.91a219.35,219.35,0,0,0-27.8-1.93,126.34,126.34,0,0,0-14.32.74,70.26,70.26,0,0,0-10.07,1.85,38.59,38.59,0,0,0-6.6,2.37,21.83,21.83,0,0,0-6.53,4.56Zm-69.29-13.6a215.38,215.38,0,0,1,27.8-2A124.44,124.44,0,0,1,256,459a65.17,65.17,0,0,1,9.49,1.74,35.11,35.11,0,0,1,5.93,2.12,16.51,16.51,0,0,1,6.09,4.56,10.1,10.1,0,0,1,1.58,2.92,10.78,10.78,0,0,1,.56,3.52v70.9a22,22,0,0,0-6.69-4.64,51.67,51.67,0,0,0-14.44-3.87,120.13,120.13,0,0,0-16.39-1,219.19,219.19,0,0,0-27.8,1.93Zm-7.46,93.18h60.77a2,2,0,1,0,0-4H206.91V472.35h3.48v67.11a2,2,0,0,0,2.3,2h0a215.54,215.54,0,0,1,29.44-2.19,124.45,124.45,0,0,1,13.87.71,65.14,65.14,0,0,1,9.49,1.75,33.44,33.44,0,0,1,5.93,2.12,16.4,16.4,0,0,1,6.09,4.56,9.79,9.79,0,0,1,1.58,2.91,10.8,10.8,0,0,1,.56,3.53v3.32H206.91Zm149.53-81.1v77.19a1.85,1.85,0,0,0-.48-.07H292.24a2,2,0,0,0,0,4H356a1.86,1.86,0,0,0,.48-.06v4.74H283.66v-3.32a10.6,10.6,0,0,1,.78-4.11,10.15,10.15,0,0,1,1.84-2.91,17.34,17.34,0,0,1,5.76-4.06,47.24,47.24,0,0,1,13.29-3.53,115.93,115.93,0,0,1,15.85-1c7.68,0,15.07.54,20.53,1.1,2.72.28,5,.55,6.53.76.78.1,1.39.19,1.8.26l.47.06h.15a2,2,0,0,0,2.3-2V472.35Z" transform="translate(-196.06 -454.32)"/><path class="cls-1" d="M198,569.93H367.16a2,2,0,0,0,0-4H198a2,2,0,0,0,0,4Z" transform="translate(-196.06 -454.32)"/></svg>