<svg id="Layer_1" data-name="Layer 1" xmlns="http://www.w3.org/2000/svg" viewBox="0 0 209.13 217.66"><defs><style>.cls-1{fill:#010101;}.cls-2{fill:#ffd431;}.cls-3{fill:#fff;}</style></defs><title>control</title><path class="cls-1" d="M384.12,340.61H349.59a1.49,1.49,0,1,1,0-3h34.53a7.71,7.71,0,0,0,7.63-7.76v-40a1.49,1.49,0,0,1,3,0v40A10.69,10.69,0,0,1,384.12,340.61Z" transform="translate(-213.35 -159.5)"/><path class="cls-1" d="M403.68,304.88a1.48,1.48,0,0,1-1.19-.59L393.24,292,384,304.29a1.49,1.49,0,0,1-2.39-1.79L392,288.57a1.55,1.55,0,0,1,2.39,0l10.44,13.93a1.48,1.48,0,0,1-1.19,2.38Z" transform="translate(-213.35 -159.5)"/><path class="cls-1" d="M248.32,243.72a1.5,1.5,0,0,1-1.5-1.49v-40a10.69,10.69,0,0,1,10.61-10.74H292a1.5,1.5,0,0,1,0,3H257.43a7.7,7.7,0,0,0-7.62,7.75v40A1.49,1.49,0,0,1,248.32,243.72Z" transform="translate(-213.35 -159.5)"/><path class="cls-1" d="M248.32,244.13a1.52,1.52,0,0,1-1.2-.6l-10.44-13.92a1.5,1.5,0,0,1,2.39-1.8l9.25,12.34,9.25-12.34a1.49,1.49,0,0,1,2.38,1.8l-10.44,13.92A1.5,1.5,0,0,1,248.32,244.13Z" transform="translate(-213.35 -159.5)"/><path class="cls-2" d="M398.56,254.47l-9.12-5.14-15.6,4.59L369,263.18,347.58,258l-.12-10.47-11.77-11.21-10.46.39L319,215.62l9-5.33,3.82-15.8-5.57-8.86,15.17-15.93,9.12,5.13,15.6-4.59,4.88-9.25,21.38,5.17.12,10.47,11.77,11.21,10.46-.4,6.21,21.1-9,5.34-3.82,15.8,5.57,8.86Z" transform="translate(-213.35 -159.5)"/><path class="cls-1" d="M369,264.67a1.45,1.45,0,0,1-.35,0l-21.37-5.17a1.48,1.48,0,0,1-1.14-1.44l-.11-9.84-10.86-10.34-9.83.37a1.46,1.46,0,0,1-1.49-1.07L317.59,216a1.49,1.49,0,0,1,.67-1.7l8.47-5,3.52-14.58L325,186.42a1.48,1.48,0,0,1,.18-1.82l15.17-15.93a1.5,1.5,0,0,1,1.81-.27l8.57,4.82L365.14,169l4.6-8.7a1.48,1.48,0,0,1,1.66-.75l21.38,5.17a1.5,1.5,0,0,1,1.14,1.43L394,176l10.86,10.35,9.83-.38a1.48,1.48,0,0,1,1.49,1.07l6.21,21.1a1.51,1.51,0,0,1-.67,1.71l-8.47,5-3.53,14.58,5.24,8.33a1.49,1.49,0,0,1-.18,1.82l-15.17,15.92a1.49,1.49,0,0,1-1.81.28l-8.57-4.83-14.39,4.23-4.6,8.7A1.48,1.48,0,0,1,369,264.67Zm-19.89-7.84,19.12,4.62,4.34-8.23a1.52,1.52,0,0,1,.9-.73L389,247.9a1.49,1.49,0,0,1,1.15.13l8.11,4.57,13.57-14.25-5-7.88a1.47,1.47,0,0,1-.18-1.14l3.82-15.8a1.47,1.47,0,0,1,.69-.94l8-4.74L413.68,189l-9.31.35a1.51,1.51,0,0,1-1.08-.41l-11.77-11.21a1.53,1.53,0,0,1-.47-1.07l-.1-9.3-19.12-4.63-4.35,8.23a1.49,1.49,0,0,1-.89.74L351,176.27a1.5,1.5,0,0,1-1.15-.14l-8.11-4.56-13.57,14.24,4.95,7.88a1.46,1.46,0,0,1,.19,1.15l-3.82,15.8a1.48,1.48,0,0,1-.69.93l-8,4.74,5.55,18.88,9.3-.36a1.51,1.51,0,0,1,1.09.42l11.77,11.21a1.48,1.48,0,0,1,.46,1.06Z" transform="translate(-213.35 -159.5)"/><circle class="cls-3" cx="370" cy="212.08" r="20.58" transform="translate(-111.96 383.84) rotate(-80.78)"/><path class="cls-1" d="M370,234.16a22.08,22.08,0,1,1,22.08-22.08A22.1,22.1,0,0,1,370,234.16ZM370,193a19.09,19.09,0,1,0,19.09,19.09A19.11,19.11,0,0,0,370,193Z" transform="translate(-213.35 -159.5)"/><path class="cls-3" d="M252.72,317.77a17,17,0,1,1,17,16.47A16.72,16.72,0,0,1,252.72,317.77Z" transform="translate(-213.35 -159.5)"/><path class="cls-1" d="M269.68,335.73a18,18,0,1,1,18.45-18A18.23,18.23,0,0,1,269.68,335.73Zm0-32.94a15,15,0,1,0,15.47,15A15.25,15.25,0,0,0,269.68,302.79Z" transform="translate(-213.35 -159.5)"/><path class="cls-1" d="M300,366.18c0-13.69-13.58-24.79-30.32-24.79s-30.32,11.1-30.32,24.79v.6a56.2,56.2,0,0,0,60.64,0Z" transform="translate(-213.35 -159.5)"/><path class="cls-1" d="M269.68,377.15A57.19,57.19,0,0,1,238.56,368a1.47,1.47,0,0,1-.69-1.25v-.6c0-14.49,14.27-26.28,31.81-26.28s31.81,11.79,31.81,26.28v.6a1.49,1.49,0,0,1-.68,1.25A57.25,57.25,0,0,1,269.68,377.15ZM240.86,366a54.69,54.69,0,0,0,57.64,0c-.14-12.75-13-23.08-28.82-23.08S241,353.21,240.86,366Zm59.14.82h0Z" transform="translate(-213.35 -159.5)"/><path class="cls-1" d="M269.68,377.15c-31.06,0-56.33-24.55-56.33-54.74s25.27-54.74,56.33-54.74S326,292.23,326,322.41,300.74,377.15,269.68,377.15Zm0-106.5c-29.41,0-53.34,23.22-53.34,51.76s23.93,51.76,53.34,51.76S323,351,323,322.41,299.1,270.65,269.68,270.65Z" transform="translate(-213.35 -159.5)"/></svg>