<svg id="Layer_1" data-name="Layer 1" xmlns="http://www.w3.org/2000/svg" viewBox="0 0 118.88 173.08"><defs><style>.cls-1{fill:#45484a;}</style></defs><title>degrees1</title><path class="cls-1" d="M337.55,270a73,73,0,0,0-4.77-6.5c-.8-1-1.49-1.79-1.94-2.31.15-1.56.44-5,.44-8.52a39.47,39.47,0,0,0-.34-5.62,16.72,16.72,0,0,0-.52-2.5,7.71,7.71,0,0,0-1-2.17,7.53,7.53,0,0,0-2-1.85,23.64,23.64,0,0,0-4.72-2.37,73.75,73.75,0,0,0-7.69-2.46c-1.23-.32-2.26-.58-2.94-.73-.68-1.16-2.1-3.5-3.81-6a48,48,0,0,0-3.94-5,18.18,18.18,0,0,0-2.13-2,7.68,7.68,0,0,0-2.35-1.36,7.41,7.41,0,0,0-2.33-.32,16.5,16.5,0,0,0-2.56.22,39.19,39.19,0,0,0-4.8,1.15,89.08,89.08,0,0,0-8.71,3.16c-1.06-.46-3.05-1.31-5.38-2.16-1.72-.63-3.62-1.26-5.47-1.74a25.8,25.8,0,0,0-2.73-.6,15.25,15.25,0,0,0-2.56-.24,7.49,7.49,0,0,0-2.2.3,7.61,7.61,0,0,0-2.37,1.33,24.6,24.6,0,0,0-3.71,3.77,76.37,76.37,0,0,0-4.72,6.54c-.68,1.08-1.24,2-1.6,2.58-1.32.29-4,.91-6.85,1.78a48.71,48.71,0,0,0-6,2.19,19.08,19.08,0,0,0-2.58,1.4,7.59,7.59,0,0,0-2,1.82,7.49,7.49,0,0,0-1.1,2.34,21.76,21.76,0,0,0-.74,4.18c-.13,1.5-.18,3.08-.18,4.6,0,3.23.21,6.24.34,7.67-.9,1-2.69,3.08-4.5,5.47a49.57,49.57,0,0,0-3.57,5.29,21.06,21.06,0,0,0-1.26,2.65,8,8,0,0,0-.56,2.62h0v0h0v0a7.7,7.7,0,0,0,.54,2.66,25,25,0,0,0,2.44,4.68,74,74,0,0,0,4.76,6.5c.81,1,1.49,1.79,2,2.31-.16,1.57-.44,5-.45,8.53a42.64,42.64,0,0,0,.34,5.62,16.57,16.57,0,0,0,.53,2.49,7.36,7.36,0,0,0,1,2.18,7.83,7.83,0,0,0,2,1.85,24,24,0,0,0,4.73,2.36,72.88,72.88,0,0,0,7.68,2.46c.82.22,1.55.41,2.14.54L231,381.43a2,2,0,0,0,2.37,2.5l17.22-4.07,12.08,12.66a2,2,0,0,0,3.35-.81l13.72-46.79L293,390.11a2,2,0,0,0,1.44,1.36,2,2,0,0,0,1.91-.55l12.07-12.66,17.23,4.06a2,2,0,0,0,2.37-2.49l-17.32-59c.34-.54.62-1,.84-1.37,1.32-.29,4-.91,6.84-1.77a46.62,46.62,0,0,0,6-2.2,19.58,19.58,0,0,0,2.58-1.39,8,8,0,0,0,2-1.83,7.61,7.61,0,0,0,1.1-2.34,20.93,20.93,0,0,0,.73-4.17c.14-1.51.19-3.09.19-4.61,0-3.23-.22-6.24-.34-7.66.9-1,2.68-3.09,4.49-5.47a46.51,46.51,0,0,0,3.57-5.31A17.53,17.53,0,0,0,340,280a7.64,7.64,0,0,0,.57-2.66v0h0a8.08,8.08,0,0,0-.54-2.66A25.11,25.11,0,0,0,337.55,270ZM263.14,387.28l-10.49-11a2,2,0,0,0-1.89-.56l-15,3.54,16.62-56.63c.48.75,1,1.55,1.57,2.36a50.68,50.68,0,0,0,3.94,5,18.89,18.89,0,0,0,2.13,2,6.69,6.69,0,0,0,4.69,1.69,16.5,16.5,0,0,0,2.56-.22,41.6,41.6,0,0,0,4.8-1.15c1.24-.38,2.48-.78,3.62-1.19l2,6.68Zm60.07-9.62-15-3.55a2,2,0,0,0-1.89.58l-10.49,11-16.41-55.91,1.35-.56c1.05.46,3.06,1.31,5.38,2.16,1.73.63,3.62,1.27,5.47,1.74.93.24,1.84.46,2.73.61a16.6,16.6,0,0,0,2.56.24,7.14,7.14,0,0,0,2.2-.31,8,8,0,0,0,2.38-1.33,25,25,0,0,0,3.71-3.76c.9-1.11,1.78-2.29,2.6-3.43Zm13.34-100.32h0a4.23,4.23,0,0,1-.31,1.3,20.59,20.59,0,0,1-2.1,3.87,69.74,69.74,0,0,1-4.58,6.08c-.71.85-1.32,1.55-1.76,2.06l-.52.57-.12.14,0,0v0a2,2,0,0,0-.51,1.55v0c0,.42.4,4.15.4,8.11a41.32,41.32,0,0,1-.31,5.52,12.67,12.67,0,0,1-.44,2.11,3.84,3.84,0,0,1-.5,1.14,3.89,3.89,0,0,1-1,.86,20.55,20.55,0,0,1-4,1.9,69.71,69.71,0,0,1-7.29,2.23c-1.06.27-2,.48-2.62.62-.32.08-.58.13-.75.16a.63.63,0,0,1-.2,0l-.05,0h0a1.94,1.94,0,0,0-1.32,1l0,0c-.2.35-2.05,3.48-4.34,6.64a42.58,42.58,0,0,1-3.56,4.39,14,14,0,0,1-1.62,1.49,4.33,4.33,0,0,1-1.09.64,3.44,3.44,0,0,1-1,.11,10.93,10.93,0,0,1-1.9-.18,34.5,34.5,0,0,1-4.3-1.07c-2.27-.7-4.56-1.59-6.27-2.27l-2.06-.87-.58-.26-.14-.07h0a2,2,0,0,0-1.64,0l0,0c-.29.12-3,1.28-6.16,2.4-1.6.55-3.33,1.09-5,1.5a18.7,18.7,0,0,1-4.14.63,3.46,3.46,0,0,1-1.08-.12,4.38,4.38,0,0,1-1.14-.7,21.13,21.13,0,0,1-3-3.19,69.73,69.73,0,0,1-4.37-6.25c-.58-.91-1.07-1.73-1.41-2.3-.16-.28-.3-.49-.38-.65l-.1-.18,0,0v0a2,2,0,0,0-1.32-1h0c-.38-.09-3.94-.88-7.65-2.09a39,39,0,0,1-5.26-2,13,13,0,0,1-1.92-1.08,3.8,3.8,0,0,1-1-.84,3.72,3.72,0,0,1-.45-1,16.5,16.5,0,0,1-.53-3.06c-.11-1.2-.16-2.54-.16-3.89,0-2.26.13-4.5.26-6.18.06-.84.12-1.54.18-2,0-.25,0-.44.05-.56a.49.49,0,0,1,0-.15v-.05a2,2,0,0,0-.5-1.55h0c-.26-.31-2.67-3-5-6.17a43.33,43.33,0,0,1-3.07-4.73,14,14,0,0,1-.92-2,3.92,3.92,0,0,1-.28-1.26v0a4.08,4.08,0,0,1,.3-1.29,21.61,21.61,0,0,1,2.11-3.86,68,68,0,0,1,4.58-6.09c.71-.84,1.32-1.55,1.76-2l.5-.58a.9.9,0,0,0,.14-.14l0,0h0a2,2,0,0,0,.52-1.55v0c0-.43-.4-4.15-.39-8.12a39.81,39.81,0,0,1,.31-5.52,13.73,13.73,0,0,1,.43-2.1,4,4,0,0,1,.5-1.14,4.26,4.26,0,0,1,1-.87,20.71,20.71,0,0,1,4-1.89,67.26,67.26,0,0,1,7.28-2.23c1.07-.27,2-.49,2.62-.63l.76-.17a1.18,1.18,0,0,0,.19,0h.06a2,2,0,0,0,1.33-.95l0,0c.2-.33,2.05-3.47,4.33-6.63a43.74,43.74,0,0,1,3.55-4.38,18.62,18.62,0,0,1,1.63-1.5,4.71,4.71,0,0,1,1.09-.64,3.55,3.55,0,0,1,1-.11,11.25,11.25,0,0,1,1.91.19,30.13,30.13,0,0,1,4.29,1.07c2.27.7,4.56,1.58,6.27,2.27.86.36,1.58.65,2.07.87l.57.26.14.06,0,0h0a2,2,0,0,0,1.63,0l0,0c.28-.13,2.94-1.29,6.14-2.4,1.6-.56,3.33-1.1,4.95-1.5a17.67,17.67,0,0,1,4.15-.64,3.92,3.92,0,0,1,1.08.12,3.87,3.87,0,0,1,1.14.7,21.14,21.14,0,0,1,3,3.19,67.07,67.07,0,0,1,4.37,6.24c.59.93,1.08,1.75,1.41,2.31l.39.66a1.19,1.19,0,0,1,.1.17l0,0h0a1.93,1.93,0,0,0,1.31,1h0c.38.08,3.94.87,7.66,2.07a45.9,45.9,0,0,1,5.26,2,13.12,13.12,0,0,1,1.92,1.09,4.13,4.13,0,0,1,1,.83,3.84,3.84,0,0,1,.45,1,15.57,15.57,0,0,1,.53,3.06c.12,1.21.16,2.55.16,3.89,0,2.25-.12,4.5-.25,6.17-.07.85-.13,1.55-.17,2,0,.24-.05.43-.06.55s0,.11,0,.15v.05a2,2,0,0,0,.48,1.55l0,0c.27.28,2.67,3,5,6.16a41.49,41.49,0,0,1,3.07,4.73,14.18,14.18,0,0,1,.92,2,4.4,4.4,0,0,1,.28,1.25Z" transform="translate(-221.65 -220.05)"/><polygon class="cls-1" points="29.68 35.04 29.68 35.04 29.68 35.04 29.68 35.04"/><path class="cls-1" d="M318,277.13h0a5.5,5.5,0,0,0-.38-1.81,15.57,15.57,0,0,0-1.55-3,47.1,47.1,0,0,0-3-4c-.37-.46-.72-.87-1-1.17.1-1.07.24-2.95.24-4.93a25.46,25.46,0,0,0-.21-3.53,10,10,0,0,0-.35-1.64,5.2,5.2,0,0,0-.73-1.55,5.6,5.6,0,0,0-1.41-1.31,15.35,15.35,0,0,0-3-1.53,42.6,42.6,0,0,0-4.76-1.51c-.59-.16-1.09-.29-1.49-.38-.46-.78-1.25-2.06-2.18-3.4a31,31,0,0,0-2.47-3.14,12,12,0,0,0-1.37-1.31,5.29,5.29,0,0,0-1.68-.95h0a5.17,5.17,0,0,0-1.66-.24,12,12,0,0,0-1.68.14,22.83,22.83,0,0,0-3,.73c-2,.61-4,1.38-5.07,1.82-.69-.29-1.77-.75-3-1.2-1.06-.39-2.24-.79-3.4-1.09-.58-.15-1.16-.28-1.73-.37a9.74,9.74,0,0,0-1.68-.16,5,5,0,0,0-1.58.23,5.43,5.43,0,0,0-1.68.92,15.17,15.17,0,0,0-2.38,2.42,44.4,44.4,0,0,0-2.92,4.05c-.34.52-.61.95-.82,1.31-.88.19-2.34.54-3.9,1a27.55,27.55,0,0,0-3.75,1.37,13.37,13.37,0,0,0-1.68.9,6,6,0,0,0-1.43,1.31,5.23,5.23,0,0,0-.78,1.66,12.81,12.81,0,0,0-.48,2.69c-.08.95-.11,1.92-.11,2.87,0,1.78.1,3.44.18,4.41-.59.67-1.57,1.82-2.56,3.12a30.34,30.34,0,0,0-2.22,3.31,12.89,12.89,0,0,0-.83,1.72,5.9,5.9,0,0,0-.38,1.84h0v0h0v0h0a5.72,5.72,0,0,0,.38,1.88,16,16,0,0,0,1.56,3,46.62,46.62,0,0,0,2.95,4c.38.47.72.86,1,1.17-.09,1.07-.24,3-.24,4.93a25.46,25.46,0,0,0,.21,3.53,9.74,9.74,0,0,0,.35,1.64,5.36,5.36,0,0,0,.73,1.56,6,6,0,0,0,1.41,1.31,15.39,15.39,0,0,0,3,1.51,42.68,42.68,0,0,0,4.75,1.52l1.5.39c.45.77,1.24,2.05,2.17,3.39a30.2,30.2,0,0,0,2.47,3.14,12.22,12.22,0,0,0,1.38,1.32,5.87,5.87,0,0,0,1.67.95h0a5.23,5.23,0,0,0,1.67.24,13.76,13.76,0,0,0,1.67-.14,26,26,0,0,0,3-.73c2.05-.62,4-1.39,5.07-1.83.7.3,1.78.75,3,1.2,1.07.4,2.24.78,3.4,1.09.59.15,1.16.28,1.73.37a9.76,9.76,0,0,0,1.69.16,5.17,5.17,0,0,0,1.57-.22h0a5.41,5.41,0,0,0,1.69-.93,16,16,0,0,0,2.38-2.41,45,45,0,0,0,2.92-4.06c.33-.52.61-.95.82-1.3.88-.2,2.34-.56,3.9-1a30.47,30.47,0,0,0,3.75-1.36,17.58,17.58,0,0,0,1.67-.91,5.82,5.82,0,0,0,1.43-1.3h0a5.84,5.84,0,0,0,.79-1.66,13.69,13.69,0,0,0,.47-2.71c.09-.93.12-1.92.12-2.86,0-1.78-.11-3.43-.18-4.4.59-.69,1.56-1.83,2.55-3.12a30.55,30.55,0,0,0,2.23-3.32,11.53,11.53,0,0,0,.81-1.71,5.27,5.27,0,0,0,.4-1.89h0v-.08Zm-4,.08v0a3.2,3.2,0,0,1-.22.7,14.68,14.68,0,0,1-1.27,2.22c-.83,1.23-1.85,2.52-2.66,3.49-.4.48-.75.89-1,1.17s-.23.24-.29.32l-.07.07,0,0h0a2,2,0,0,0-.52,1.55v0c0,.24.24,2.49.24,4.86a25,25,0,0,1-.18,3.25,8.26,8.26,0,0,1-.24,1.16,2.46,2.46,0,0,1-.12.34l-.05.1v0l0,0a3.24,3.24,0,0,1-.6.44,14.15,14.15,0,0,1-2.33,1.06c-1.4.5-3,.95-4.21,1.27l-1.49.34-.42.09-.11,0h0a2,2,0,0,0-1.33.94v0c-.12.19-1.23,2.08-2.6,4a25.69,25.69,0,0,1-2.09,2.57,8.74,8.74,0,0,1-.9.83l-.31.22-.09,0h0l.6,1.89-.6-1.89h0l-.35,0a7.3,7.3,0,0,1-1-.08,21.71,21.71,0,0,1-2.52-.64c-1.34-.41-2.72-.94-3.75-1.36-.51-.2-.94-.38-1.23-.52l-.35-.15-.09,0h0a2,2,0,0,0-1.62,0h0c-.16.09-1.77.77-3.69,1.44a30.56,30.56,0,0,1-2.93.89,10.22,10.22,0,0,1-2.34.37h-.31l-.11,0h0a3.25,3.25,0,0,1-.6-.43,16.07,16.07,0,0,1-1.72-1.88c-.92-1.18-1.83-2.56-2.49-3.61l-.8-1.32-.22-.37,0-.09,0,0h0a2.05,2.05,0,0,0-1.31-1h0c-.22,0-2.37-.52-4.58-1.24a23.87,23.87,0,0,1-3.11-1.19,9.08,9.08,0,0,1-1.06-.6c-.14-.09-.23-.17-.3-.22l-.07-.08,0,0,0,0a2.58,2.58,0,0,1-.19-.54,8.77,8.77,0,0,1-.26-1.67c-.06-.66-.09-1.42-.09-2.17,0-1.34.08-2.69.16-3.69,0-.51.07-.92.1-1.23,0-.13,0-.25,0-.32v-.11a1.93,1.93,0,0,0-.49-1.55l0,0c-.15-.17-1.6-1.82-3-3.69a25.16,25.16,0,0,1-1.81-2.79,7.25,7.25,0,0,1-.51-1.11c-.05-.15-.09-.27-.11-.36s0-.13,0-.13v0a2.73,2.73,0,0,1,.22-.71,15.3,15.3,0,0,1,1.27-2.22c.83-1.24,1.85-2.53,2.65-3.49.41-.47.76-.88,1-1.15l.28-.34.08-.07v0h0a2,2,0,0,0,.51-1.55h0c0-.25-.24-2.51-.24-4.87a23.22,23.22,0,0,1,.19-3.25,6.3,6.3,0,0,1,.24-1.16,3.06,3.06,0,0,1,.12-.34l0-.09,0,0h0l0,0a3.35,3.35,0,0,1,.6-.44,14,14,0,0,1,2.33-1,40.46,40.46,0,0,1,4.2-1.27c.61-.15,1.13-.28,1.49-.35l.42-.09.11,0h0a2,2,0,0,0,1.33-1h0c.11-.2,1.23-2.09,2.59-4a28.73,28.73,0,0,1,2.09-2.58,12.06,12.06,0,0,1,.9-.84,2.21,2.21,0,0,1,.32-.2l.08,0h.06a1.81,1.81,0,0,1,.35,0,5.57,5.57,0,0,1,1,.1,18.39,18.39,0,0,1,2.51.63c1.35.41,2.72.94,3.75,1.36.51.2.95.39,1.24.52l.34.15.09,0h0a1.91,1.91,0,0,0,1.62,0h0c.17-.07,1.77-.77,3.69-1.44,1-.32,2-.65,2.94-.89a10.72,10.72,0,0,1,2.34-.37,1.24,1.24,0,0,1,.3,0h.14a3.25,3.25,0,0,1,.6.43,15.4,15.4,0,0,1,1.73,1.89c.91,1.17,1.82,2.55,2.49,3.62.33.52.6,1,.79,1.3l.22.37.06.1,0,0h0a2,2,0,0,0,1.31,1h0c.22,0,2.36.52,4.58,1.24a25,25,0,0,1,3.11,1.19,10,10,0,0,1,1.06.6l.3.23.07.07,0,0v0a2.45,2.45,0,0,1,.19.54,9.34,9.34,0,0,1,.26,1.67,21.46,21.46,0,0,1,.09,2.17c0,1.34-.08,2.69-.15,3.71,0,.49-.09.91-.11,1.2s0,.26,0,.34v.1a2,2,0,0,0,.49,1.56h0c.15.18,1.6,1.82,3,3.68a27.05,27.05,0,0,1,1.8,2.8,8.6,8.6,0,0,1,.52,1.11,2,2,0,0,1,.1.36.5.5,0,0,1,0,.14Z" transform="translate(-221.65 -220.05)"/></svg>