<svg id="Layer_1" data-name="Layer 1" xmlns="http://www.w3.org/2000/svg" viewBox="0 0 250.99 225.02"><defs><style>.cls-1{fill:#481f2e;}.cls-2{fill:#fff;}</style></defs><title>department1</title><path class="cls-1" d="M207.24,395.43h-4.33v8.66h4.33a4.34,4.34,0,0,1,4.33,4.32V391.1A4.34,4.34,0,0,1,207.24,395.43ZM348.7,315.16l-69.24-65.69a4.39,4.39,0,0,0-6,0l-69.24,65.69a4.34,4.34,0,0,0-1.34,3.16V469a4.34,4.34,0,0,0,4.33,4.32H345.71A4.34,4.34,0,0,0,350,469V318.32A4.3,4.3,0,0,0,348.7,315.16ZM211.57,464.67V320.18l64.91-61.58,64.91,61.58V464.67Z" transform="translate(-150.98 -248.3)"/><path class="cls-2" d="M276.48,258.6l-64.91,61.58V464.67h26V378.12a4.34,4.34,0,0,1,4.33-4.33h69.23a4.34,4.34,0,0,1,4.33,4.33v86.55h26V320.18Zm0,97.88a30.29,30.29,0,1,1,30.29-30.29A30.32,30.32,0,0,1,276.48,356.48Z" transform="translate(-150.98 -248.3)"/><path class="cls-1" d="M397.64,334.85H345.71a4.34,4.34,0,0,0-4.32,4.33V469a4.33,4.33,0,0,0,4.32,4.32h51.93A4.34,4.34,0,0,0,402,469V339.18A4.34,4.34,0,0,0,397.64,334.85Zm-4.32,129.82H350V343.5h43.28Z" transform="translate(-150.98 -248.3)"/><path class="cls-2" d="M393.32,343.5V464.67H350V447.36h30.29a4.34,4.34,0,0,0,4.33-4.33V408.41a4.34,4.34,0,0,0-4.33-4.32H350v-8.66h30.29a4.34,4.34,0,0,0,4.33-4.33V356.48a4.34,4.34,0,0,0-4.33-4.32H350V343.5Z" transform="translate(-150.98 -248.3)"/><path class="cls-1" d="M207.24,334.85H155.31a4.34,4.34,0,0,0-4.33,4.33V469a4.34,4.34,0,0,0,4.33,4.32h51.93a4.34,4.34,0,0,0,4.33-4.32V339.18A4.34,4.34,0,0,0,207.24,334.85Zm-47.6,8.65h43.27V464.67H159.64Z" transform="translate(-150.98 -248.3)"/><path class="cls-2" d="M168.29,356.48V391.1a4.34,4.34,0,0,0,4.33,4.33h30.29v8.66H172.62a4.34,4.34,0,0,0-4.33,4.32V443a4.34,4.34,0,0,0,4.33,4.33h30.29v17.31H159.64V343.5h43.27v8.66H172.62A4.34,4.34,0,0,0,168.29,356.48Z" transform="translate(-150.98 -248.3)"/><path class="cls-1" d="M311.09,373.79H241.86a4.34,4.34,0,0,0-4.33,4.33V469a4.34,4.34,0,0,0,4.33,4.32h69.23a4.34,4.34,0,0,0,4.33-4.32V378.12A4.34,4.34,0,0,0,311.09,373.79Zm-64.91,90.88V382.45h60.59v82.22Z" transform="translate(-150.98 -248.3)"/><rect class="cls-2" x="95.2" y="134.15" width="25.96" height="82.22"/><rect class="cls-2" x="129.82" y="134.15" width="25.96" height="82.22"/><path class="cls-1" d="M276.48,295.9a30.29,30.29,0,1,0,30.29,30.29A30.33,30.33,0,0,0,276.48,295.9Zm0,51.93a21.64,21.64,0,1,1,21.63-21.64A21.64,21.64,0,0,1,276.48,347.83Z" transform="translate(-150.98 -248.3)"/><circle class="cls-2" cx="276.48" cy="326.19" r="21.64" transform="translate(-254.77 -117.67) rotate(-22.5)"/><path class="cls-1" d="M380.33,352.16H345.71a4.33,4.33,0,0,0-4.32,4.32V391.1a4.34,4.34,0,0,0,4.32,4.33h34.62a4.34,4.34,0,0,0,4.33-4.33V356.48A4.34,4.34,0,0,0,380.33,352.16ZM376,386.78H350v-26h26Z" transform="translate(-150.98 -248.3)"/><rect class="cls-2" x="199.06" y="112.51" width="25.96" height="25.96"/><path class="cls-1" d="M380.33,404.09H345.71a4.33,4.33,0,0,0-4.32,4.32V443a4.34,4.34,0,0,0,4.32,4.33h34.62a4.34,4.34,0,0,0,4.33-4.33V408.41A4.34,4.34,0,0,0,380.33,404.09ZM376,438.71H350v-26h26Z" transform="translate(-150.98 -248.3)"/><rect class="cls-2" x="199.06" y="164.44" width="25.96" height="25.96"/><path class="cls-1" d="M207.24,352.16H172.62a4.34,4.34,0,0,0-4.33,4.32V391.1a4.34,4.34,0,0,0,4.33,4.33h34.62a4.34,4.34,0,0,0,4.33-4.33V356.48A4.34,4.34,0,0,0,207.24,352.16Zm-4.33,34.62H177v-26h26Z" transform="translate(-150.98 -248.3)"/><rect class="cls-2" x="25.96" y="112.51" width="25.96" height="25.96"/><path class="cls-1" d="M207.24,404.09H172.62a4.34,4.34,0,0,0-4.33,4.32V443a4.34,4.34,0,0,0,4.33,4.33h34.62a4.34,4.34,0,0,0,4.33-4.33V408.41A4.34,4.34,0,0,0,207.24,404.09Zm-4.33,34.62H177v-26h26Z" transform="translate(-150.98 -248.3)"/><rect class="cls-2" x="25.96" y="164.44" width="25.96" height="25.96"/><path class="cls-1" d="M280.8,378.12V469a4.33,4.33,0,0,1-8.65,0V378.12a4.33,4.33,0,1,1,8.65,0Z" transform="translate(-150.98 -248.3)"/></svg>