<svg id="Layer_1" data-name="Layer 1" xmlns="http://www.w3.org/2000/svg" viewBox="0 0 225.73 168.41"><defs><style>.cls-1{fill:#fff;}.cls-2{fill:#010101;}.cls-3{fill:#ffd431;}</style></defs><title>employ1</title><circle class="cls-1" cx="267.76" cy="352.93" r="19.02" transform="translate(-293 200.02) rotate(-76.72)"/><path class="cls-2" d="M267.76,373.44a20.51,20.51,0,1,1,20.51-20.51A20.54,20.54,0,0,1,267.76,373.44Zm0-38a17.53,17.53,0,1,0,17.52,17.53A17.54,17.54,0,0,0,267.76,335.4Z" transform="translate(-155.75 -332.42)"/><path class="cls-2" d="M324.47,377.5a18.9,18.9,0,1,1,18.9-18.9A18.92,18.92,0,0,1,324.47,377.5Zm0-34.82a15.92,15.92,0,1,0,15.92,15.92A15.93,15.93,0,0,0,324.47,342.68Z" transform="translate(-155.75 -332.42)"/><path class="cls-2" d="M355.59,429.3a1.46,1.46,0,0,1-.78-.22c-.16-.09-16.31-9.76-43.33-11.27a1.49,1.49,0,1,1,.17-3c22.22,1.24,37,7.7,42.45,10.47V409.77c0-13.63-13.29-24.71-29.63-24.71a33.72,33.72,0,0,0-16.66,4.28,1.49,1.49,0,0,1-1.47-2.59,36.64,36.64,0,0,1,18.13-4.68c18,0,32.61,12.43,32.61,27.7v18a1.49,1.49,0,0,1-1.49,1.49Z" transform="translate(-155.75 -332.42)"/><path class="cls-2" d="M209.89,377.5a18.9,18.9,0,1,1,18.89-18.9A18.92,18.92,0,0,1,209.89,377.5Zm0-34.82A15.92,15.92,0,1,0,225.8,358.6,15.94,15.94,0,0,0,209.89,342.68Z" transform="translate(-155.75 -332.42)"/><path class="cls-2" d="M178.77,429.3a1.45,1.45,0,0,1-.73-.19,1.49,1.49,0,0,1-.77-1.3v-18c0-15.27,14.63-27.7,32.62-27.7A36.64,36.64,0,0,1,228,386.75a1.49,1.49,0,0,1-1.47,2.59,33.75,33.75,0,0,0-16.66-4.28c-16.34,0-29.63,11.08-29.63,24.71V425.3c5.41-2.77,20.23-9.23,42.45-10.47a1.49,1.49,0,1,1,.17,3c-27,1.51-43.18,11.18-43.34,11.27A1.41,1.41,0,0,1,178.77,429.3Z" transform="translate(-155.75 -332.42)"/><ellipse class="cls-1" cx="112.86" cy="129.41" rx="111.37" ry="37.5"/><path class="cls-2" d="M268.61,500.83c-63.29,0-112.86-17.13-112.86-39s49.57-39,112.86-39,112.86,17.13,112.86,39S331.9,500.83,268.61,500.83Zm0-75c-29.59,0-57.39,3.88-78.28,10.91-20.08,6.76-31.6,15.91-31.6,25.1s11.52,18.34,31.6,25.11c20.89,7,48.69,10.9,78.28,10.9S326,494,346.89,486.94c20.08-6.77,31.6-15.92,31.6-25.11s-11.52-18.34-31.6-25.1C326,429.7,298.2,425.82,268.61,425.82Z" transform="translate(-155.75 -332.42)"/><path class="cls-3" d="M268.61,414.19a318.56,318.56,0,0,1,33.15,1.69v-7c0-15.81-15.23-28.63-34-28.63s-34,12.82-34,28.63v7.23A316.73,316.73,0,0,1,268.61,414.19Z" transform="translate(-155.75 -332.42)"/><path class="cls-2" d="M233.75,417.56a1.46,1.46,0,0,1-1-.38,1.48,1.48,0,0,1-.5-1.11v-7.23c0-16.61,15.92-30.12,35.5-30.12s35.49,13.51,35.49,30.12v7a1.51,1.51,0,0,1-.49,1.11,1.53,1.53,0,0,1-1.16.38,322.77,322.77,0,0,0-67.68.18Zm34-35.86c-17.93,0-32.51,12.18-32.51,27.14v5.57a318.28,318.28,0,0,1,33.36-1.71c10.78,0,21.42.52,31.66,1.53v-5.39C300.27,393.88,285.68,381.7,267.76,381.7Z" transform="translate(-155.75 -332.42)"/></svg>