<svg id="Layer_1" data-name="Layer 1" xmlns="http://www.w3.org/2000/svg" viewBox="0 0 137.49 173.1"><defs><style>.cls-1{fill:#45484a;}</style></defs><title>exams1</title><path class="cls-1" d="M252.32,500.56a7.63,7.63,0,0,0,7.63,7.63h26.39v16.34a7.65,7.65,0,0,0,7.63,7.63h88.21a7.63,7.63,0,0,0,7.63-7.63V391.85a2,2,0,0,0-2-2h-32v-22a1.81,1.81,0,0,0-.05-.39,6.66,6.66,0,0,0,.05-.78,7.63,7.63,0,0,0-7.63-7.63H260a7.61,7.61,0,0,0-7.63,7.63,6.68,6.68,0,0,0,0,.78,1.78,1.78,0,0,0,0,.39ZM385.83,393.84V524.53a3.59,3.59,0,0,1-1.07,2.58,3.63,3.63,0,0,1-2.58,1.07H294a3.69,3.69,0,0,1-2.59-1.07,3.63,3.63,0,0,1-1.06-2.58V393.84ZM257.36,364.12A3.6,3.6,0,0,1,260,363h88.21a3.56,3.56,0,0,1,2.58,1.08,3.65,3.65,0,0,1,0,5.16,3.56,3.56,0,0,1-2.58,1.08H260a3.6,3.6,0,0,1-2.59-1.08,3.65,3.65,0,0,1,0-5.16ZM260,374.33h88.21a7.64,7.64,0,0,0,3.65-.93v16.45H288.33a2,2,0,0,0-1.4.6,1.93,1.93,0,0,0-.59,1.4V504.21H260a3.64,3.64,0,0,1-3.66-3.65V373.4A7.68,7.68,0,0,0,260,374.33Z" transform="translate(-252.32 -359.07)"/><path class="cls-1" d="M300.35,412.37h25.1a2,2,0,0,0,0-4h-25.1a2,2,0,0,0,0,4Z" transform="translate(-252.32 -359.07)"/><path class="cls-1" d="M300.35,426.81h72.87a2,2,0,0,0,0-4H300.35a2,2,0,0,0,0,4Z" transform="translate(-252.32 -359.07)"/><path class="cls-1" d="M300.35,444.89h72.87a2,2,0,0,0,0-4H300.35a2,2,0,0,0,0,4Z" transform="translate(-252.32 -359.07)"/><path class="cls-1" d="M300.35,463h72.87a2,2,0,0,0,0-4H300.35a2,2,0,0,0,0,4Z" transform="translate(-252.32 -359.07)"/><path class="cls-1" d="M300.35,480.26h72.87a2,2,0,0,0,0-4H300.35a2,2,0,0,0,0,4Z" transform="translate(-252.32 -359.07)"/></svg>