<svg id="Layer_1" data-name="Layer 1" xmlns="http://www.w3.org/2000/svg" viewBox="0 0 159.93 173.08"><defs><style>.cls-1{fill:#45484a;}</style></defs><title>Home work1</title><path class="cls-1" d="M278.48,385.42a2,2,0,0,0,1.4-3.4l-77.06-75.87a2,2,0,0,0-2.77,0l-78.9,75.93a2,2,0,0,0,1.39,3.42l12-.05V474.7h-11a2,2,0,1,0,0,4H277.43a2,2,0,1,0,0-4h-7.49V385.42Zm-10.53-4a2,2,0,0,0-2,2V474.7H138.53V383.43a2,2,0,0,0-.59-1.41,1.93,1.93,0,0,0-1.4-.58l-9,.05,73.92-71.15,72.21,71.1Z" transform="translate(-120.54 -305.58)"/><path class="cls-1" d="M201.32,397.18a17.89,17.89,0,1,0-12.64-5.25A17.79,17.79,0,0,0,201.32,397.18Zm-9.82-27.7a13.9,13.9,0,1,1,0,19.65,13.89,13.89,0,0,1,0-19.65Z" transform="translate(-120.54 -305.58)"/><path class="cls-1" d="M254.14,447H241.88V441a2,2,0,0,0-.58-1.4,2,2,0,0,0-1.41-.58h-.28v-6.6A31,31,0,0,0,236.56,419c-.14-.29-.27-.57-.43-.86v-9a2,2,0,0,0-2-2h-7a39.17,39.17,0,0,0-4.51-3.17,41.89,41.89,0,0,0-47.17,3.17h-7a2,2,0,0,0-1.4.59,2,2,0,0,0-.59,1.41v9c-.14.28-.29.56-.42.84a31,31,0,0,0-3,13.41V439h-.28a2,2,0,0,0-1.4.58,2,2,0,0,0-.59,1.4V447H146.87a2,2,0,1,0,0,4H254.14a2,2,0,0,0,0-4Zm-52.82-44.8a37.54,37.54,0,0,1,18.87,5H182.43A37.48,37.48,0,0,1,201.32,402.15Zm-30.85,9h61.69V440H170.47ZM164.73,447V443h1.76V447Zm5.74,0V444h61.69V447Zm65.66,0V443h1.77V447Z" transform="translate(-120.54 -305.58)"/></svg>