<svg xmlns="http://www.w3.org/2000/svg" width="31.94" height="23.5" viewBox="0 0 31.94 23.5">
  <path id="ic_notifications_active_24px" d="M10.92,4.4,8.629,2.681c-3.844,2.205-6.375,5.6-6.6,9.46h3.2C5.474,8.947,7.652,6.152,10.92,4.4Zm19.846,7.737h3.2c-.24-3.856-2.771-7.255-6.6-9.46L25.1,4.4C28.332,6.152,30.526,8.947,30.766,12.141Zm-3.156.6c0-3.7-2.627-6.8-7.208-7.616V4.308c0-1-1.073-1.808-2.4-1.808s-2.4.807-2.4,1.808v.819c-4.6.819-7.208,3.9-7.208,7.616v6.026l-3.2,2.41v1.205H30.814V21.179l-3.2-2.41ZM18,26a3.7,3.7,0,0,0,.641-.048,3.2,3.2,0,0,0,2.307-1.422,1.909,1.909,0,0,0,.24-.94H14.78C14.8,24.915,16.222,26,18,26Z" transform="translate(-2.03 -2.5)" fill="#707070"/>
</svg>
