<svg id="Layer_1" data-name="Layer 1" xmlns="http://www.w3.org/2000/svg" viewBox="0 0 173.09 123.33"><defs><style>.cls-1{fill:#45484a;}</style></defs><title>notafiction1</title><path class="cls-1" d="M332.42,584.27c-7.73-6.59-12.13-12.69-14.62-17.83a28.27,28.27,0,0,1-3.06-12.22,17.28,17.28,0,0,1,.27-3.13c.05-.3.11-.54.15-.71a52.25,52.25,0,0,0-66.46-77.31A52.26,52.26,0,0,0,178,547.87a15.46,15.46,0,0,1,.42,3.84,28.09,28.09,0,0,1-3.06,12.21c-2.49,5.15-6.89,11.24-14.62,17.83a2,2,0,0,0-.56,2.23,2,2,0,0,0,1.93,1.27,130.37,130.37,0,0,0,19.6-2.62A101,101,0,0,0,199,577.51a56.26,56.26,0,0,0,15.24-8.89,54.1,54.1,0,0,0,5.73.33,52,52,0,0,0,24.54-6.11,52,52,0,0,0,28.77,8.63,51.29,51.29,0,0,0,5.73-.33A55.83,55.83,0,0,0,294.2,580a112.61,112.61,0,0,0,24.89,6.51,120.15,120.15,0,0,0,12,1.24,2,2,0,0,0,1.37-3.5ZM219.92,565a45.88,45.88,0,0,1-6.11-.4,2,2,0,0,0-1.57.5,51.24,51.24,0,0,1-14.79,8.76,107.44,107.44,0,0,1-24,6.25c-2.18.33-4.15.57-5.82.74a54.91,54.91,0,0,0,11.29-15.17,32.12,32.12,0,0,0,3.46-13.93,18,18,0,0,0-.7-5.38,1.78,1.78,0,0,0-.3-.54A48.31,48.31,0,1,1,219.92,565Zm91.85,16.19a97.19,97.19,0,0,1-16.33-4.91,51,51,0,0,1-14.53-8.66,2,2,0,0,0-1.57-.49,49.37,49.37,0,0,1-6.11.4,48.06,48.06,0,0,1-24.92-6.92,52.56,52.56,0,0,0,19.11-22.06h33.86a2,2,0,0,0,0-4H269.05a51.68,51.68,0,0,0,3-14.58h29.21a2,2,0,1,0,0-4H272.17a52.06,52.06,0,0,0-15.3-36.21,49.86,49.86,0,0,0-4.55-4.05,48.27,48.27,0,0,1,59.44,72.6,2.22,2.22,0,0,0-.29.55,17.61,17.61,0,0,0-.7,5.37,32,32,0,0,0,3.46,13.95,55.08,55.08,0,0,0,11.28,15.17A130.6,130.6,0,0,1,311.77,581.15Z" transform="translate(-160.03 -464.44)"/><path class="cls-1" d="M301.44,497.57H286.69a2,2,0,1,0,0,4h14.75a2,2,0,1,0,0-4Z" transform="translate(-160.03 -464.44)"/><path class="cls-1" d="M191.71,499h14.75a2,2,0,0,0,0-4H191.71a2,2,0,0,0,0,4Z" transform="translate(-160.03 -464.44)"/><path class="cls-1" d="M249.44,513.44H191.87a2,2,0,0,0,0,4h57.57a2,2,0,0,0,0-4Z" transform="translate(-160.03 -464.44)"/><path class="cls-1" d="M249.44,532H191.87a2,2,0,1,0,0,4h57.57a2,2,0,1,0,0-4Z" transform="translate(-160.03 -464.44)"/></svg>