<svg id="Layer_1" data-name="Layer 1" xmlns="http://www.w3.org/2000/svg" viewBox="0 0 238.66 206.82"><defs><style>.cls-1{fill:#fff;}.cls-2{fill:#010101;}</style></defs><title>notifications1</title><path class="cls-1" d="M360,307H209.53c-5.24,0-9.48,5.42-9.48,12.11v86.27c0,6.69,4.24,12.1,9.48,12.1h37.25l9.46,35,15.74-35h88c5.24,0,9.49-5.41,9.49-12.1V319.08C369.45,312.39,365.2,307,360,307Z" transform="translate(-198.55 -305.48)"/><path class="cls-2" d="M256.24,454h-.12a1.48,1.48,0,0,1-1.32-1.1L245.64,419H209.53c-6.05,0-11-6.1-11-13.6V319.07c0-7.49,4.93-13.59,11-13.59H360c6.05,0,11,6.1,11,13.59v86.28c0,7.5-4.93,13.6-11,13.6H273L257.6,453.07A1.5,1.5,0,0,1,256.24,454ZM209.53,308.46c-4.41,0-8,4.76-8,10.61v86.28c0,5.85,3.58,10.61,8,10.61h37.25a1.48,1.48,0,0,1,1.44,1.11l8.37,31,14-31.2A1.5,1.5,0,0,1,272,416h88c4.41,0,8-4.76,8-10.61V319.07c0-5.85-3.58-10.61-8-10.61Z" transform="translate(-198.55 -305.48)"/><path class="cls-2" d="M395.8,512.3a1.49,1.49,0,0,1-1.38-.92l-10.81-26.46h-70.8c-4.54,0-8.23-4.91-8.23-10.95V426.8a1.49,1.49,0,0,1,3,0V474c0,4.32,2.41,8,5.25,8h71.8a1.49,1.49,0,0,1,1.38.93L395.44,506l5.63-22.92a1.49,1.49,0,0,1,1.45-1.14H429c2.85,0,5.25-3.65,5.25-8V398.85c0-4.32-2.4-8-5.25-8H379.57a1.49,1.49,0,0,1,0-3H429c4.54,0,8.24,4.91,8.24,11V474c0,6-3.7,10.95-8.24,10.95H403.69l-6.44,26.25a1.51,1.51,0,0,1-1.34,1.13Z" transform="translate(-198.55 -305.48)"/><path class="cls-2" d="M306.07,410.1a1.5,1.5,0,0,1-1.49-1.5v-9.75c0-6,3.69-11,8.23-11h46a1.49,1.49,0,0,1,0,3h-46c-2.84,0-5.25,3.65-5.25,8v9.75A1.49,1.49,0,0,1,306.07,410.1Z" transform="translate(-198.55 -305.48)"/><path class="cls-2" d="M316.46,354.42a3.89,3.89,0,1,1-3.89,3.89A3.89,3.89,0,0,1,316.46,354.42Z" transform="translate(-198.55 -305.48)"/><path class="cls-2" d="M316.46,363.69a5.39,5.39,0,1,1,5.38-5.38A5.38,5.38,0,0,1,316.46,363.69Zm0-7.78a2.4,2.4,0,1,0,2.4,2.4A2.4,2.4,0,0,0,316.46,355.91Z" transform="translate(-198.55 -305.48)"/><path class="cls-2" d="M284.52,354.42a3.89,3.89,0,1,1-3.89,3.89A3.89,3.89,0,0,1,284.52,354.42Z" transform="translate(-198.55 -305.48)"/><path class="cls-2" d="M284.51,363.69a5.39,5.39,0,1,1,5.39-5.38A5.39,5.39,0,0,1,284.51,363.69Zm0-7.78a2.4,2.4,0,1,0,2.4,2.4A2.39,2.39,0,0,0,284.51,355.91Z" transform="translate(-198.55 -305.48)"/><path class="cls-2" d="M253,354.42a3.89,3.89,0,1,1-3.89,3.89A3.89,3.89,0,0,1,253,354.42Z" transform="translate(-198.55 -305.48)"/><path class="cls-2" d="M253,363.69a5.39,5.39,0,1,1,5.39-5.38A5.39,5.39,0,0,1,253,363.69Zm0-7.78a2.4,2.4,0,1,0,2.4,2.4A2.39,2.39,0,0,0,253,355.91Z" transform="translate(-198.55 -305.48)"/></svg>