<svg id="Layer_1" data-name="Layer 1" xmlns="http://www.w3.org/2000/svg" viewBox="0 0 521.33 180.18"><defs><style>.cls-1{fill:none;stroke:#000;stroke-miterlimit:10;}.cls-2{fill:#ffd434;}</style></defs><title>pattren1</title><path class="cls-1" d="M179.55,250.7h60.6l-30.3,44.62Z" transform="translate(-21.7 -250.2)"/><path class="cls-2" d="M203.42,261.69h49l-24.49,36.07Z" transform="translate(-21.7 -250.2)"/><path d="M519.78,427.62a2.76,2.76,0,1,1-2.76-2.76A2.77,2.77,0,0,1,519.78,427.62Z" transform="translate(-21.7 -250.2)"/><path d="M543,357.57a4.33,4.33,0,1,1-4.33-4.33A4.33,4.33,0,0,1,543,357.57Z" transform="translate(-21.7 -250.2)"/><path d="M31,359.89a4.66,4.66,0,1,1-4.66-4.66A4.66,4.66,0,0,1,31,359.89Z" transform="translate(-21.7 -250.2)"/><path d="M176.65,385.91a3.35,3.35,0,1,1-3.35-3.36A3.35,3.35,0,0,1,176.65,385.91Z" transform="translate(-21.7 -250.2)"/><path d="M453.49,419.4a2.39,2.39,0,1,1-2.38-2.38A2.39,2.39,0,0,1,453.49,419.4Z" transform="translate(-21.7 -250.2)"/><path d="M123.47,267.39a5.7,5.7,0,1,1-5.69-5.7A5.7,5.7,0,0,1,123.47,267.39Z" transform="translate(-21.7 -250.2)"/></svg>