<svg id="Layer_1" data-name="Layer 1" xmlns="http://www.w3.org/2000/svg" viewBox="0 0 210.6 210.79"><defs><style>.cls-1{fill:#2d2e2d;}</style></defs><title>payment1</title><circle class="cls-1" cx="170.56" cy="139.09" r="6.32"/><path class="cls-1" d="M366.21,377.2c-1.71-1.64-3.61-2.43-6.74-2.8l-4.35-.52,0-17.78c0-15.43-.22-18.23-1.56-21.19A16.27,16.27,0,0,0,342.9,326l-3.65-.92,2-3.83c3.1-5.83,2.41-10.8-2.05-14.84-.95-.86-19.09-12.13-40.31-25-37.52-22.84-38.7-23.48-43-23.5-3.87,0-4.8.34-7.27,2.73-1.56,1.5-11.27,16.66-21.58,33.69l-18.74,31H190.54c-5.91,0-11.84.06-17.73.5a17.24,17.24,0,0,0-12.2,6.76c-2.09,2.58-2.07,5.67-2.21,8.81-.15,3.41-.2,6.83-.24,10.24-.19,14.34-.16,28.68-.16,43v2.19q0,17.21.11,34.42c0,6.89.1,13.79.31,20.69.05,1.63.1,3.25.21,4.88.31,4.56,4.68,9.15,8.84,10.68a13.05,13.05,0,0,0,3.87.62c6.58.35,13.18.35,19.77.42,8,.08,15.95.11,23.93.14q16.94.06,33.87.05H257l86.06,0,3.51-1.79a17.94,17.94,0,0,0,5.83-5.3l2.32-3.5.25-19.22.26-19.23h4.23c3.56,0,4.63-.4,6.7-2.47l.19-.19a7.75,7.75,0,0,0,2.27-5.48V382.79A7.72,7.72,0,0,0,366.21,377.2Zm-75.88-90.69c.41,0,10.32,5.84,22,13S334,313,334.43,313.75c.63,1-2.16,6.24-11.82,22.2L310,356.85l-5.43.24c-5,.23-5.29.14-3.7-1,1-.67,6.24-8.68,11.75-17.78,10.9-18,11.72-20.47,8.11-24.31-3-3.17-20-13.18-22.45-13.18-4.73,0-6.52,2-16.51,18.67q-3.44,5.73-6.81,11.52c-1.43,2.46-4,5.62-3.64,8.6a8,8,0,0,0,2.79,5.41,47.23,47.23,0,0,0,6.34,4.32c4.25,2.6,8.87,5.45,10.26,6.31.62.4,1.08.69,1.06.91l-44.05,0c.47-1.23,13.05-22.82,36.87-61.82C287.32,290.21,289.91,286.51,290.33,286.51Zm5.88,61.88c-.73.45-16.06-8.65-16.06-9.53,0-.34,3.44-6.29,7.65-13.22,11.21-18.43,9.85-16.7,12-15.32,1,.65,4.61,2.81,8,4.81,4.51,2.67,6,4,5.64,4.95C312.68,322,296.9,348,296.21,348.39Zm-23.84-72.83a33.35,33.35,0,0,1,5.25,2.79c2.55,1.53,4.59,3.08,4.54,3.44s-10.29,17.47-22.75,38l-22.65,37.4-13.5.15c.42-1.08,42.21-71.88,47.3-79.93C271.22,276.41,272,275.56,272.37,275.56Zm-21.94-3.16c4.29-6.94,5.24-7.28,10.86-4l3.61,2.12L254,288.42c-6,9.83-17.81,29.34-26.28,43.34l-15.4,25.46-13.08-.05C199.25,356.83,241,287.61,250.43,272.4ZM346.7,436.92c0,18-.57,21.34-3.83,22.6-.75.29-39.83.52-86.84.52H173.48a7.07,7.07,0,0,1-7.06-7.06V374.42c0-10.39.12-20.79,0-31.19,0-1.75-.18-3.52.64-5.14,2.43-4.8,7.9-4.15,12.37-4.24q8.09-.17,16.17,0c.44,0,7,0,7,.4s-3.09,5.6-6.87,11.79l-6.86,11.27H183a17.23,17.23,0,0,0-7.33,1.27,3,3,0,0,0-1.67,1.94c-.65,2.42,1.69,4,3.69,4.5a29.88,29.88,0,0,0,6.05.39c4,.14,8,.17,12,.21q10.31.09,20.61.09,15.79,0,31.58,0H330.9a7.29,7.29,0,0,0,4.31-1,3.82,3.82,0,0,0-.62-6.71c-2.24-1-4.83-.79-7.22-.87l-7.53-.24,6.9-11.37c6.47-10.67,7.07-11.39,9.74-11.65a13.13,13.13,0,0,1,5.29.75c4.71,1.95,4.93,2.91,4.93,22l0,18H317.82L296.14,394.8a3.07,3.07,0,0,0-.07,4.42l20.44,20.39H346.7Zm13.47-39.64v13.9H319.35l-7-6.93c-3.84-3.81-7-7.17-7-7.47s3.48-3.67,7.73-7.5l7.83-6.42,39.19.52Z" transform="translate(-158 -257.88)"/></svg>