<svg id="Layer_1" data-name="Layer 1" xmlns="http://www.w3.org/2000/svg" viewBox="0 0 233.07 218.55"><defs><style>.cls-1{fill:#fff;}.cls-2{fill:#010101;}.cls-3{fill:#ffd431;}</style></defs><title>settings1</title><path class="cls-1" d="M364.36,526.7l-8.19-5.4a19.26,19.26,0,0,0-28.68,9.47L324.13,540l-24.67-3.23-.89-9.76a19.25,19.25,0,0,0-25.28-16.52l-9.3,3.11c-7-11.65-5.82-9.65-12.86-21.3l7.08-6.78a19.26,19.26,0,0,0-2.85-30.07l-8.23-5.33c4.73-12.76,3.91-10.57,8.64-23.33l9.71,1.31a19.25,19.25,0,0,0,21.73-21l-1-9.76,23.63-7.8,5,8.41a19.25,19.25,0,0,0,29.95,3.91l7-6.83,20.83,13.61-3.43,9.18a19.25,19.25,0,0,0,15.61,25.85l9.72,1.23c1.29,13.55,1.07,11.22,2.35,24.77l-9.32,3A19.24,19.24,0,0,0,377.16,501l5.1,8.38Z" transform="translate(-165.38 -322.91)"/><path class="cls-2" d="M324.13,541.47h-.2l-24.67-3.23a1.49,1.49,0,0,1-1.29-1.34l-.89-9.77a17.76,17.76,0,0,0-23.32-15.24l-9.3,3.11a1.49,1.49,0,0,1-1.75-.64l-12.86-21.3a1.49,1.49,0,0,1,.25-1.85l7.08-6.78a17.75,17.75,0,0,0-2.63-27.73l-8.23-5.33a1.49,1.49,0,0,1-.58-1.77l8.63-23.34a1.49,1.49,0,0,1,1.6-1l9.71,1.31a17.76,17.76,0,0,0,20.05-19.35l-1-9.75a1.49,1.49,0,0,1,1-1.57l23.63-7.8a1.49,1.49,0,0,1,1.75.65l5,8.42a17.77,17.77,0,0,0,27.63,3.61l7-6.84a1.5,1.5,0,0,1,1.86-.18l20.83,13.61a1.49,1.49,0,0,1,.58,1.77l-3.44,9.18a17.76,17.76,0,0,0,14.4,23.85l9.73,1.23a1.51,1.51,0,0,1,1.3,1.34l2.34,24.77a1.47,1.47,0,0,1-1,1.56l-9.32,3a17.76,17.76,0,0,0-9.67,26.13l5.1,8.37a1.48,1.48,0,0,1-.23,1.85l-17.91,17.28a1.48,1.48,0,0,1-1.85.17l-8.19-5.39a17.76,17.76,0,0,0-26.46,8.73l-3.36,9.21A1.5,1.5,0,0,1,324.13,541.47Zm-23.3-6,22.31,2.91,2.95-8.08a20.74,20.74,0,0,1,30.9-10.2l7.19,4.73,16.18-15.62-4.47-7.35a20.75,20.75,0,0,1,11.29-30.52l8.18-2.66-2.12-22.4-8.54-1.08a20.74,20.74,0,0,1-16.82-27.85l3-8.07-18.83-12.3-6.17,6a20.75,20.75,0,0,1-32.27-4.21l-4.42-7.39-21.36,7.05.85,8.57a20.76,20.76,0,0,1-23.42,22.6l-8.53-1.15L249,449.5l7.22,4.68a20.74,20.74,0,0,1,3.07,32.4L253,492.53l11.63,19.25,8.16-2.73a20.76,20.76,0,0,1,27.25,17.8Z" transform="translate(-165.38 -322.91)"/><circle class="cls-2" cx="322.05" cy="464.76" r="35.06" transform="translate(-381 316.85) rotate(-73.31)"/><path class="cls-2" d="M322.05,501.31a36.55,36.55,0,1,1,36.55-36.55A36.58,36.58,0,0,1,322.05,501.31Zm0-70.11a33.57,33.57,0,1,0,33.56,33.56A33.61,33.61,0,0,0,322.05,431.2Z" transform="translate(-165.38 -322.91)"/><circle class="cls-1" cx="322.05" cy="464.76" r="22.81" transform="translate(-399.69 40.93) rotate(-45)"/><path class="cls-2" d="M322.05,489.07a24.31,24.31,0,1,1,24.3-24.31A24.33,24.33,0,0,1,322.05,489.07Zm0-45.63a21.32,21.32,0,1,0,21.32,21.32A21.35,21.35,0,0,0,322.05,443.44Z" transform="translate(-165.38 -322.91)"/><path class="cls-3" d="M238.88,409l-8.26-4.65-14.12,4.16-4.43,8.38-19.35-4.68-.1-9.48L182,392.61l-9.47.36-5.62-19.1L175,369c1.36-5.62,2.11-8.69,3.47-14.31l-5.05-8,13.73-14.42,8.26,4.65,14.12-4.15L214,324.4l19.35,4.69.1,9.47,10.66,10.15,9.47-.35,5.62,19.1L251,372.29c-1.36,5.61-2.11,8.68-3.47,14.3l5.05,8Z" transform="translate(-165.38 -322.91)"/><path class="cls-2" d="M212.07,418.41a1.45,1.45,0,0,1-.35,0l-19.35-4.68a1.52,1.52,0,0,1-1.14-1.44l-.1-8.85-9.74-9.28-8.84.34a1.51,1.51,0,0,1-1.49-1.07l-5.62-19.1a1.5,1.5,0,0,1,.67-1.71l7.61-4.51L176.89,355l-4.71-7.49a1.48,1.48,0,0,1,.18-1.82l13.73-14.42a1.5,1.5,0,0,1,1.81-.27l7.71,4.34,12.92-3.8,4.13-7.82a1.47,1.47,0,0,1,1.67-.75l19.35,4.68a1.5,1.5,0,0,1,1.14,1.43l.1,8.85,9.74,9.28,8.84-.33a1.46,1.46,0,0,1,1.49,1.07l5.62,19.1a1.49,1.49,0,0,1-.67,1.7l-7.61,4.51-3.17,13.08,4.71,7.49a1.48,1.48,0,0,1-.18,1.82L240,410.06a1.5,1.5,0,0,1-1.81.27L230.44,406l-12.92,3.8-4.13,7.82A1.48,1.48,0,0,1,212.07,418.41Zm-17.87-7.35,17.1,4.14,3.88-7.36a1.46,1.46,0,0,1,.9-.73L230.2,403a1.54,1.54,0,0,1,1.15.13l7.25,4.08,12.13-12.73-4.43-7.05a1.52,1.52,0,0,1-.19-1.14l3.47-14.31a1.47,1.47,0,0,1,.69-.93l7.15-4.24-5-16.87-8.31.31a1.42,1.42,0,0,1-1.09-.41L232.4,339.64a1.46,1.46,0,0,1-.46-1.06l-.09-8.32-17.1-4.13-3.88,7.35a1.51,1.51,0,0,1-.9.74l-14.12,4.15a1.49,1.49,0,0,1-1.15-.13l-7.25-4.08L175.32,346.9l4.43,7a1.52,1.52,0,0,1,.19,1.14l-3.47,14.31a1.45,1.45,0,0,1-.69.93l-7.15,4.24,5,16.87,8.31-.31a1.48,1.48,0,0,1,1.09.41l10.66,10.15a1.48,1.48,0,0,1,.46,1.06Z" transform="translate(-165.38 -322.91)"/><path class="cls-1" d="M231.66,370.66A18.64,18.64,0,1,1,213,352,18.63,18.63,0,0,1,231.66,370.66Z" transform="translate(-165.38 -322.91)"/><path class="cls-2" d="M213,390.79a20.13,20.13,0,1,1,20.13-20.13A20.15,20.15,0,0,1,213,390.79Zm0-37.27a17.14,17.14,0,1,0,17.15,17.14A17.16,17.16,0,0,0,213,353.52Z" transform="translate(-165.38 -322.91)"/></svg>