<svg id="Layer_1" data-name="Layer 1" xmlns="http://www.w3.org/2000/svg" viewBox="0 0 229.07 216.55"><defs><style>.cls-1{fill:#010101;}.cls-2{fill:#fff;}.cls-3{fill:#ffd431;}</style></defs><title>Shape1</title><path class="cls-1" d="M311,614.29a1.49,1.49,0,0,1-1.36-.88l-16.2-36H187.89c-6.34,0-11.49-6.39-11.49-14.24V525.38a1.49,1.49,0,0,1,3,0v37.77c0,6.21,3.82,11.26,8.51,11.26h106.5a1.51,1.51,0,0,1,1.36.88l14.88,33.09,8.87-32.87a1.5,1.5,0,0,1,1.44-1.1H360.2c4.69,0,8.51-5,8.51-11.26V472.21c0-6.21-3.82-11.26-8.51-11.26H346.39a1.49,1.49,0,1,1,0-3H360.2c6.34,0,11.49,6.39,11.49,14.24v90.94c0,7.85-5.15,14.24-11.49,14.24H322.09l-9.67,35.79a1.48,1.48,0,0,1-1.32,1.1Z" transform="translate(-142.63 -397.74)"/><path class="cls-2" d="M326.43,399.23H154.12c-5.53,0-10,5.71-10,12.75v90.94c0,7,4.47,12.75,10,12.75h39.26l10,36.89,16.59-36.89h106.5c5.53,0,10-5.71,10-12.75V412C336.43,404.94,332,399.23,326.43,399.23Z" transform="translate(-142.63 -397.74)"/><path class="cls-1" d="M203.34,554.06h-.12a1.48,1.48,0,0,1-1.32-1.1l-9.67-35.79H154.11c-6.33,0-11.48-6.39-11.48-14.24V412c0-7.85,5.15-14.24,11.48-14.24H326.43c6.34,0,11.49,6.39,11.49,14.24v90.94c0,7.85-5.15,14.24-11.49,14.24H220.9l-16.2,36A1.51,1.51,0,0,1,203.34,554.06ZM154.11,400.72c-4.69,0-8.5,5-8.5,11.26v90.94c0,6.21,3.81,11.26,8.5,11.26h39.27a1.5,1.5,0,0,1,1.44,1.1l8.87,32.87,14.88-33.09a1.48,1.48,0,0,1,1.36-.88h106.5c4.69,0,8.51-5,8.51-11.26V412c0-6.21-3.82-11.26-8.51-11.26Z" transform="translate(-142.63 -397.74)"/><path class="cls-2" d="M180.26,438.94a14,14,0,1,1,14,14A14,14,0,0,1,180.26,438.94Z" transform="translate(-142.63 -397.74)"/><path class="cls-1" d="M194.29,454.46a15.52,15.52,0,1,1,15.52-15.52A15.53,15.53,0,0,1,194.29,454.46Zm0-28.06a12.54,12.54,0,1,0,12.54,12.54A12.56,12.56,0,0,0,194.29,426.4Z" transform="translate(-142.63 -397.74)"/><path class="cls-3" d="M219.37,488.26v-8.08c0-11.66-11.23-21.12-25.08-21.12h0c-13.85,0-25.08,9.46-25.08,21.12v8.08Z" transform="translate(-142.63 -397.74)"/><path class="cls-1" d="M219.37,489.76H169.21a1.49,1.49,0,0,1-1.49-1.5v-8.08c0-12.46,11.92-22.61,26.57-22.61s26.57,10.15,26.57,22.61v8.08A1.5,1.5,0,0,1,219.37,489.76Zm-48.67-3h47.18v-6.59c0-10.82-10.58-19.62-23.59-19.62s-23.59,8.8-23.59,19.62Z" transform="translate(-142.63 -397.74)"/><path class="cls-1" d="M301.74,441H243.06a.5.5,0,0,1,0-1h58.68a.5.5,0,1,1,0,1Z" transform="translate(-142.63 -397.74)"/><path class="cls-1" d="M301.74,465.9H243.06a.49.49,0,0,1-.49-.5.5.5,0,0,1,.49-.5h58.68a.5.5,0,0,1,.5.5A.5.5,0,0,1,301.74,465.9Z" transform="translate(-142.63 -397.74)"/><path class="cls-1" d="M294.05,453.47H252.27a.51.51,0,0,1-.5-.5.5.5,0,0,1,.5-.5h41.78a.5.5,0,0,1,.5.5A.5.5,0,0,1,294.05,453.47Z" transform="translate(-142.63 -397.74)"/></svg>