<svg id="Layer_1" data-name="Layer 1" xmlns="http://www.w3.org/2000/svg" viewBox="0 0 214.73 190.6"><defs><style>.cls-1{fill:#010101;}.cls-2{fill:#fff;}.cls-3{fill:#ffd431;}</style></defs><title>student1</title><path class="cls-1" d="M358,443.28H323.5a1.49,1.49,0,0,1,0-3H358a7.7,7.7,0,0,0,7.62-7.76v-40a1.5,1.5,0,0,1,3,0v40A10.69,10.69,0,0,1,358,443.28Z" transform="translate(-180.68 -299.94)"/><path class="cls-1" d="M253.83,443.28H219.3a10.69,10.69,0,0,1-10.61-10.74v-40a1.49,1.49,0,1,1,3,0v40a7.7,7.7,0,0,0,7.63,7.76h34.53a1.49,1.49,0,0,1,0,3Z" transform="translate(-180.68 -299.94)"/><circle class="cls-2" cx="213.34" cy="318.87" r="17.43" transform="translate(-286.47 -194.03) rotate(-22.5)"/><path class="cls-1" d="M213.34,337.79a18.93,18.93,0,1,1,18.92-18.92A18.95,18.95,0,0,1,213.34,337.79Zm0-34.86a15.94,15.94,0,1,0,15.94,15.94A16,16,0,0,0,213.34,302.93Z" transform="translate(-180.68 -299.94)"/><path class="cls-1" d="M244.5,380.15v-10c0-14.49-13.95-26.24-31.16-26.24h0c-17.21,0-31.16,11.75-31.16,26.24v10Z" transform="translate(-180.68 -299.94)"/><path class="cls-1" d="M244.5,381.64H182.18a1.5,1.5,0,0,1-1.5-1.49v-10c0-15.29,14.65-27.73,32.66-27.73S246,354.82,246,370.11v10A1.49,1.49,0,0,1,244.5,381.64Zm-60.83-3H243v-8.55c0-13.65-13.31-24.75-29.67-24.75s-29.67,11.1-29.67,24.75Z" transform="translate(-180.68 -299.94)"/><circle class="cls-2" cx="362.75" cy="318.87" r="17.43" transform="translate(-275.1 -136.85) rotate(-22.5)"/><path class="cls-1" d="M362.75,337.79a18.93,18.93,0,1,1,18.93-18.92A18.94,18.94,0,0,1,362.75,337.79Zm0-34.86a15.94,15.94,0,1,0,15.94,15.94A16,16,0,0,0,362.75,302.93Z" transform="translate(-180.68 -299.94)"/><path class="cls-2" d="M393.92,380.15v-10c0-14.49-13.95-26.24-31.17-26.24h0c-17.21,0-31.16,11.75-31.16,26.24v10Z" transform="translate(-180.68 -299.94)"/><path class="cls-1" d="M393.92,381.64H331.59a1.49,1.49,0,0,1-1.49-1.49v-10c0-15.29,14.65-27.73,32.65-27.73s32.66,12.44,32.66,27.73v10A1.49,1.49,0,0,1,393.92,381.64Zm-60.84-3h59.35v-8.55c0-13.65-13.31-24.75-29.68-24.75s-29.67,11.1-29.67,24.75Z" transform="translate(-180.68 -299.94)"/><circle class="cls-2" cx="290.08" cy="427.77" r="17.43" transform="translate(-359.31 345.64) rotate(-80.78)"/><path class="cls-1" d="M290.08,446.69A18.93,18.93,0,1,1,309,427.77,18.94,18.94,0,0,1,290.08,446.69Zm0-34.86A15.94,15.94,0,1,0,306,427.77,16,16,0,0,0,290.08,411.83Z" transform="translate(-180.68 -299.94)"/><path class="cls-3" d="M321.25,489.05V479c0-14.49-14-26.24-31.17-26.24h0c-17.21,0-31.16,11.75-31.16,26.24v10Z" transform="translate(-180.68 -299.94)"/><path class="cls-1" d="M321.25,490.55H258.92a1.5,1.5,0,0,1-1.49-1.5V479c0-15.29,14.65-27.73,32.65-27.73s32.66,12.44,32.66,27.73v10A1.5,1.5,0,0,1,321.25,490.55Zm-60.84-3h59.34V479c0-13.64-13.31-24.75-29.67-24.75S260.41,465.37,260.41,479Z" transform="translate(-180.68 -299.94)"/><path class="cls-1" d="M319.39,356.27H258.72a1.49,1.49,0,1,1,0-3h60.67a1.49,1.49,0,1,1,0,3Z" transform="translate(-180.68 -299.94)"/></svg>