<svg id="Layer_1" data-name="Layer 1" xmlns="http://www.w3.org/2000/svg" viewBox="0 0 112.66 109.48"><defs><style>.cls-1{fill:#fff;}.cls-2{fill:#010101;}.cls-3{fill:#ffd431;}</style></defs><title>user2</title><path class="cls-1" d="M345.63,264.42a17,17,0,1,1,17,16.47A16.72,16.72,0,0,1,345.63,264.42Z" transform="translate(-306.26 -214.32)"/><path class="cls-2" d="M362.59,282.38a18,18,0,1,1,18.45-18A18.23,18.23,0,0,1,362.59,282.38Zm0-32.94a15,15,0,1,0,15.46,15A15.25,15.25,0,0,0,362.59,249.44Z" transform="translate(-306.26 -214.32)"/><path class="cls-3" d="M392.9,312.83c0-13.69-13.57-24.79-30.31-24.79s-30.32,11.1-30.32,24.79v.6a56.19,56.19,0,0,0,60.63,0Z" transform="translate(-306.26 -214.32)"/><path class="cls-2" d="M362.59,323.8a57.27,57.27,0,0,1-31.13-9.11,1.52,1.52,0,0,1-.68-1.26v-.6c0-14.49,14.27-26.28,31.81-26.28s31.8,11.79,31.8,26.28v.6a1.49,1.49,0,0,1-.68,1.26A57.26,57.26,0,0,1,362.59,323.8Zm-28.83-11.19a54.71,54.71,0,0,0,57.65,0c-.14-12.74-13-23.08-28.82-23.08S333.91,299.87,333.76,312.61Zm59.14.82h0Z" transform="translate(-306.26 -214.32)"/><path class="cls-2" d="M362.59,323.8c-31.06,0-56.33-24.55-56.33-54.74s25.27-54.74,56.33-54.74,56.32,24.56,56.32,54.74S393.65,323.8,362.59,323.8Zm0-106.49c-29.42,0-53.35,23.21-53.35,51.75s23.93,51.76,53.35,51.76,53.34-23.22,53.34-51.76S392,217.31,362.59,217.31Z" transform="translate(-306.26 -214.32)"/></svg>