<svg id="user1" xmlns="http://www.w3.org/2000/svg" width="119.144" height="149.33" viewBox="0 0 119.144 149.33">
  <path id="Path_1" data-name="Path 1" d="M263.6,273.393a32.093,32.093,0,1,1,32.078,32.093A32.093,32.093,0,0,1,263.6,273.393Z" transform="translate(-236.106 -239.037)" fill="#fff"/>
  <path id="Path_2" data-name="Path 2" d="M296.4,308.364a34.3,34.3,0,1,1,34.3-34.238A34.3,34.3,0,0,1,296.4,308.364Zm0-64.172a29.89,29.89,0,1,0,29.89,29.934A29.89,29.89,0,0,0,296.4,244.192Z" transform="translate(-236.825 -239.77)" fill="#010101"/>
  <path id="Path_3" data-name="Path 3" d="M361.232,360.865V342.392c0-26.621-25.675-48.3-57.369-48.3h0c-31.679,0-57.354,21.622-57.354,48.3v18.472Z" transform="translate(-244.292 -213.753)" fill="#95bd37"/>
  <path id="Path_4" data-name="Path 4" d="M361.951,363.8H247.228a2.218,2.218,0,0,1-2.218-2.218V343.111c0-27.849,26.725-50.521,59.572-50.521s59.572,22.672,59.572,50.521v18.472a2.2,2.2,0,0,1-2.2,2.218Zm-112.519-4.437H359.747V343.1c0-25.423-24.743-46.1-55.165-46.1s-55.15,20.69-55.15,46.114Z" transform="translate(-245.01 -214.472)" fill="#010101"/>
</svg>
